<svg width="42" height="44" viewBox="0 0 42 44" fill="none" xmlns="http://www.w3.org/2000/svg">
<g clip-path="url(#clip0_121_729)">
<path d="M36.7757 18.2674L36.7733 18.267C36.7723 18.267 36.7713 18.2667 36.7699 18.2664L31.164 17.5179L30.0144 14.0781C29.8474 13.5786 29.6074 13.1191 29.3096 12.7086C30.1224 11.9439 30.5926 10.8771 30.5926 9.73917V7.04374C30.5926 4.87361 28.8547 3.10204 26.6948 3.03771C26.3573 1.72875 25.1643 0.758863 23.7482 0.758863C22.0707 0.758863 20.7063 2.12027 20.7063 3.79328C20.7063 4.67924 21.0906 5.50217 21.7394 6.07082C21.5632 6.55714 21.4668 7.08102 21.4668 7.6273C21.4668 8.99851 22.0725 10.2519 23.0594 11.1023C21.8878 11.6523 20.9375 12.6402 20.4639 13.8912L19.7408 15.8023L14.6679 14.5374L13.4892 11.0095C13.3259 10.5212 13.0924 10.0715 12.8024 9.66911C13.6118 8.90543 14.0786 7.84136 14.0786 6.70449V4.00907C14.0786 1.79828 12.2759 0 10.0596 0H8.97183C6.7559 0 4.9528 1.79828 4.9528 4.00907V9.21326C4.9528 9.23968 4.95416 9.26575 4.95688 9.29115C4.54201 9.76189 4.21133 10.3143 3.99441 10.929L0.504682 20.8853C-0.231018 23.087 -0.160401 25.486 0.703634 27.6406L2.43511 31.9586L0.940645 43.1408C0.911788 43.3576 0.977991 43.5763 1.12228 43.7409C1.26657 43.9055 1.47536 44 1.69434 44H7.01775C7.252 44 7.47302 43.8923 7.61731 43.7081C7.7616 43.5238 7.81252 43.2837 7.75583 43.0572L7.0337 40.1765L8.34183 32.438C8.34251 32.4343 8.34319 32.4309 8.34353 32.4272C8.48273 31.525 8.44063 30.6188 8.21859 29.7331L7.90828 28.495L10.0275 31.3134L8.54457 43.1467C8.51741 43.3625 8.58463 43.5799 8.72892 43.7428C8.87322 43.906 9.08099 43.9995 9.29895 43.9995H14.6224C14.8566 43.9995 15.0776 43.8918 15.2219 43.7075C15.3662 43.5233 15.4171 43.2832 15.3604 43.0566L14.6363 40.1675L15.8259 32.0129C16.0517 30.3249 15.6406 28.6242 14.669 27.2242L9.38049 19.6039L10.2432 17.022L11.1367 18.5829C11.2457 18.7732 11.4321 18.9073 11.648 18.9507L18.0843 20.2348L17.5809 21.7632C17.5792 21.7686 17.5781 21.7741 17.5764 21.7795C17.5744 21.7863 17.5717 21.793 17.5697 21.7998C17.2437 22.9875 17.1993 24.2213 17.441 25.3679C17.6953 26.5753 18.2381 27.723 19.0108 28.6861C19.5835 29.4 19.8467 30.33 19.7329 31.2373L19.1911 35.5606C19.1639 35.7763 19.2311 35.9938 19.3754 36.1567C19.5197 36.3199 19.7275 36.4134 19.9454 36.4134H20.1121L18.4472 43.0569C18.3905 43.2835 18.4415 43.5236 18.5858 43.7078C18.7301 43.892 18.9511 43.9997 19.1853 43.9997H23.7482C23.9825 43.9997 24.2035 43.892 24.3478 43.7078C24.4921 43.5236 24.543 43.2835 24.4863 43.0569L23.7832 40.2518L25.2261 36.4137H26.5977L26.0328 43.1781C26.0151 43.3894 26.0871 43.5987 26.2311 43.7548C26.375 43.9109 26.578 43.9997 26.7906 43.9997H32.114C32.3774 43.9997 32.6222 43.8635 32.7607 43.64C32.8992 43.4165 32.9118 43.1371 32.794 42.9017L31.3759 40.0729L31.8346 36.4137H32.1137C32.5336 36.4137 32.8741 36.074 32.8741 35.6551V32.8205C32.8741 32.4977 32.8565 32.178 32.8229 31.862H37.4371V43.2411C37.4371 43.66 37.7776 43.9997 38.1976 43.9997C38.6175 43.9997 38.958 43.66 38.958 43.2411V31.862H40.479V43.2411C40.479 43.66 40.8195 43.9997 41.2395 43.9997C41.6595 43.9997 42 43.66 42 43.2411V24.276C42 21.2711 39.7542 18.6881 36.7758 18.2674L36.7757 18.2674ZM29.8712 18.4472C29.9262 18.6115 30.0349 18.7476 30.1748 18.8394C29.5511 19.1489 28.9882 19.5617 28.5081 20.0558L28.1537 19.4371L29.6899 17.9046L29.8712 18.4472ZM27.5219 21.3929C27.1352 22.1048 26.888 22.902 26.8147 23.7483C26.3431 23.3297 26.0641 22.7479 26.0332 22.1174L26.7475 20.0404L27.5222 21.393L27.5219 21.3929ZM28.3112 26.8386L28.4871 26.9751C29.0469 27.4096 29.5331 27.9118 29.9385 28.4658C29.9609 28.5038 29.9863 28.5397 30.0148 28.5728C30.4002 29.1201 30.7081 29.7152 30.9308 30.3448H28.3112L28.3112 26.8386ZM29.8322 24.2759V26.1162C29.6991 25.9997 29.562 25.8866 29.4211 25.7776L28.3112 24.9163V24.2759C28.3112 23.4726 28.5217 22.7174 28.8897 22.0614L30.2019 22.1925C29.9592 22.8569 29.8322 23.5647 29.8322 24.2759L29.8322 24.2759ZM30.1092 20.6583C30.8772 20.0727 31.8353 19.7243 32.8741 19.7243C33.8499 19.7243 34.7543 20.0325 35.4968 20.5547L35.3389 21.1802L30.1092 20.6586L30.1092 20.6583ZM29.0717 9.73871C29.0717 9.92024 29.0517 10.0987 29.015 10.2721L28.8846 10.7008C28.743 11.0514 28.5244 11.3677 28.2419 11.6268C27.5989 11.1472 26.8428 10.8201 26.0297 10.6873V9.08376C27.0588 9.03127 28.0766 8.87108 29.0717 8.60726L29.0717 9.73871ZM22.2273 3.79282C22.2273 2.95633 22.9097 2.27561 23.7483 2.27561C24.3502 2.27561 24.87 2.62714 25.1161 3.13412C24.084 3.35221 23.1786 3.91575 22.5274 4.69771C22.3359 4.44067 22.227 4.1257 22.227 3.79276L22.2273 3.79282ZM26.0708 4.55142H26.5737C27.9473 4.55142 29.0656 5.66323 29.0717 7.0321C27.8376 7.39989 26.5604 7.58581 25.2693 7.58581C24.8493 7.58581 24.5088 7.92549 24.5088 8.34441V10.2792C23.5836 9.73831 22.9878 8.74062 22.9878 7.62673C22.9878 5.93101 24.3709 4.55131 26.0709 4.55131L26.0708 4.55142ZM21.8868 14.4263C22.4049 13.0571 23.7388 12.1373 25.2058 12.1373C26.7353 12.1373 28.0878 13.1096 28.5717 14.557L29.1522 16.294L27.3719 18.0699L27.2341 17.8295C27.0857 17.5707 26.7992 17.4227 26.5021 17.4505C26.2047 17.4786 25.9514 17.6777 25.8543 17.9595L24.7262 21.2401H19.3536L19.614 20.4497C19.8564 20.3793 20.0577 20.1913 20.1324 19.9343L21.8868 14.4263ZM18.8659 18.8425L13.2117 17.7144C13.3268 17.5606 14.2045 16.3272 14.4065 16.0353L19.3248 17.2619L18.8655 18.8427L18.8659 18.8425ZM11.7367 8.58442C11.0923 8.10284 10.3325 7.77603 9.51561 7.6473V5.95228L12.5576 5.44666V6.70377C12.5576 7.42716 12.2568 8.10281 11.7366 8.58433L11.7367 8.58442ZM8.97145 1.51684H10.0592C11.4034 1.51684 12.5026 2.58087 12.5553 3.90882L8.62996 4.56142C8.2633 4.62238 7.99441 4.93903 7.99441 5.30986V7.6402C7.45901 7.71911 6.94633 7.88303 6.47344 8.12077V4.0087C6.47344 2.63472 7.59418 1.51684 8.97149 1.51684L8.97145 1.51684ZM2.56267 42.4823L2.76535 40.9651H5.66302L6.04327 42.4823H2.56232H2.56267ZM10.1604 42.4823L10.3505 40.9651H13.2682L13.6484 42.4823H10.1604ZM14.3194 31.8029L13.2041 39.4475H10.5407L11.5745 31.197C11.5989 31.002 11.5466 30.8052 11.4282 30.6477L6.86523 24.5789C6.64795 24.29 6.25684 24.1938 5.92988 24.349C5.60294 24.5041 5.43115 24.8678 5.51908 25.2179L6.74264 30.1004C6.91477 30.7875 6.9477 31.4906 6.84041 32.1902L5.61381 39.4471H2.9681L3.96864 31.9613C3.98595 31.8319 3.96966 31.7005 3.92077 31.5793L2.11533 27.0764C1.38472 25.2547 1.32496 23.2261 1.94694 21.3645L2.24196 20.4819H8.13978L13.418 28.0873C14.1737 29.1761 14.4932 30.4988 14.319 31.8027L14.3194 31.8029ZM10.72 14.7963C10.5713 14.5365 10.2834 14.3882 9.9846 14.4177C9.68617 14.4471 9.4329 14.6486 9.33784 14.9328L7.99 18.9656H2.7681L5.42842 11.4334C5.9207 10.0398 7.24646 9.10375 8.72737 9.10375C10.2355 9.10375 11.569 10.0625 12.0457 11.4897L13.2374 15.0555C12.7841 15.7142 12.2956 16.4026 11.9245 16.9005L10.7197 14.7961L10.72 14.7963ZM18.9295 25.0561C18.7747 24.3208 18.7713 23.5362 18.9125 22.7586H24.5846C24.7635 23.6601 25.2578 24.4691 26.003 25.0476L26.7903 25.6585V34.8962H20.8076L21.2425 31.4256C21.4068 30.1143 21.0262 28.7705 20.1989 27.7386C19.5742 26.9597 19.1356 26.032 18.9298 25.0561L18.9295 25.0561ZM20.1591 42.4823L20.5394 40.9651H22.3937L22.774 42.4823H20.1591ZM22.4606 39.4479H20.9196L21.6801 36.4135H23.6013L22.4606 39.4479ZM28.3109 42.4823V40.9651H30.1225L30.8829 42.4823H28.3109ZM29.9207 39.4479H28.3109V36.4135H30.301L29.9207 39.4479ZM31.3528 32.8203V34.8963H28.3109V31.8618H31.291C31.3314 32.1768 31.3528 32.4968 31.3528 32.8203H31.3528ZM32.5272 30.3446C32.2702 29.4496 31.8746 28.6036 31.3528 27.8338V24.2758C31.3528 23.6097 31.5012 22.9489 31.7816 22.3498L35.84 22.7545C35.8654 22.7572 35.8909 22.7582 35.9164 22.7582C36.2613 22.7582 36.5675 22.5246 36.6534 22.1849L36.7363 21.8564C37.1793 22.5578 37.4367 23.3868 37.4367 24.2754V30.3442H32.5271L32.5272 30.3446ZM38.9577 30.3446V24.2758C38.9577 22.617 38.2865 21.1117 37.2011 20.0151L37.2262 19.9155C39.1203 20.4834 40.4786 22.2516 40.4786 24.2754V30.3442H38.9577L38.9577 30.3446Z" fill="white"/>
</g>
<defs>
<clipPath id="clip0_121_729">
<rect width="42" height="44" fill="white"/>
</clipPath>
</defs>
</svg>
