<svg width="44" height="44" viewBox="0 0 44 44" fill="none" xmlns="http://www.w3.org/2000/svg">
<g clip-path="url(#clip0_121_717)">
<path d="M42.7945 40.1233H42.3616V18.6064C42.6572 18.4964 42.9116 18.3041 43.0972 18.0426L43.6884 17.2314C43.9357 16.8875 44.039 16.4613 43.9772 16.0419C43.9084 15.6225 43.6816 15.2513 43.3378 14.9968L23.2226 0.402133C22.487 -0.134044 21.4902 -0.134044 20.7546 0.402133L0.660273 15.0032C0.316418 15.2576 0.0896753 15.6221 0.020826 16.0483C-0.0480233 16.4744 0.0552473 16.8939 0.309677 17.2377L0.90086 18.0489C1.09319 18.3101 1.35472 18.5028 1.63647 18.6057V40.1226H1.20356C0.543532 40.1226 0.000259151 40.6588 0.000259151 41.3255V42.7967C0.000259151 43.4635 0.543541 44 1.20356 44H42.7948C43.4548 44 43.9977 43.4571 43.9977 42.7971V41.3259C43.998 40.6587 43.4548 40.1226 42.7948 40.1226L42.7945 40.1233ZM1.03886 16.2073C1.05944 16.0561 1.14212 15.9255 1.26561 15.8361L21.3599 1.24141C21.7382 0.9664 22.2399 0.9664 22.6179 1.24141L42.7331 15.8425C42.8569 15.9319 42.9392 16.0625 42.9598 16.2136C42.9804 16.3648 42.946 16.516 42.8566 16.6331L42.2654 17.4443C42.176 17.5681 42.0454 17.6504 41.8942 17.671C41.743 17.6916 41.5919 17.6572 41.468 17.5678L22.2958 3.64711C22.2064 3.58536 22.0964 3.55094 21.9935 3.55094C21.8902 3.55094 21.7802 3.58536 21.6911 3.64711L2.52433 17.5678C2.2699 17.7534 1.9193 17.6984 1.73372 17.4439L1.14254 16.6327C1.05347 16.5092 1.01905 16.3581 1.03963 16.2069L1.03886 16.2073ZM2.66121 37.6969H4.73741C5.01916 37.6969 5.25301 37.4631 5.25301 37.1813C5.25301 36.8996 5.01916 36.6657 4.73741 36.6657L2.66121 36.6661V34.3219H4.73741C5.01916 34.3219 5.25301 34.088 5.25301 33.8063C5.25301 33.5245 5.01916 33.2907 4.73741 33.2907L2.66121 33.2903V30.9461H4.73741C5.01916 30.9461 5.25301 30.7123 5.25301 30.4305C5.25301 30.1488 5.01916 29.9149 4.73741 29.9149H2.66121V27.5708H4.73741C5.01916 27.5708 5.25301 27.3369 5.25301 27.0552C5.25301 26.7734 5.01916 26.5396 4.73741 26.5396H2.66121V24.2022H4.73741C5.01916 24.2022 5.25301 23.9683 5.25301 23.6866C5.25301 23.4048 5.01916 23.171 4.73741 23.171H2.66121V20.8268H4.73741C5.01916 20.8268 5.25301 20.593 5.25301 20.3112C5.25301 20.0294 5.01916 19.7956 4.73741 19.7956H2.66121V18.6338C2.82622 18.5856 2.98448 18.51 3.12855 18.4071L21.9919 4.70624L40.8689 18.4071C41.0134 18.5103 41.1713 18.5859 41.3295 18.6409V40.1305H31.0662V27.6461C31.0662 26.3399 30.1038 25.2608 28.8594 25.0543C28.9967 24.6419 28.9761 24.1948 28.8044 23.7963C28.4126 22.9163 27.3676 22.5039 26.4741 22.8889L24.4394 23.7895C24.3638 23.824 24.2744 23.7963 24.2332 23.7278L23.3532 22.456C23.9032 20.978 23.8894 18.5168 22.157 17.135C22.1364 17.1212 22.1158 17.1077 22.0952 17.0939C20.6172 16.2415 19.0428 16.4683 17.6542 17.7333C15.2 19.9746 13.6739 25.0407 13.9762 28.8288L12.9379 38.845C12.9311 38.9139 12.924 38.9962 12.924 39.065C12.924 39.4501 13.034 39.8145 13.2129 40.1235H2.66066L2.66121 37.6969ZM22.3086 40.1238C22.5353 39.7455 22.6386 39.3058 22.5974 38.8658L21.5868 28.8768C21.6074 28.7185 21.628 28.5606 21.6485 28.3956C21.7241 27.7494 21.8135 27.0894 21.958 26.4432C22.618 27.0138 23.4703 27.3367 24.3709 27.3367C24.8727 27.3367 25.3745 27.2335 25.856 27.0206L25.8904 27.0067C25.8422 27.2129 25.8081 27.4191 25.8081 27.6391C25.8081 27.9208 26.0419 28.1547 26.3237 28.1547C26.6055 28.1547 26.8393 27.9208 26.8393 27.6391C26.8393 26.7523 27.5543 26.0372 28.4411 26.0372C29.3279 26.0372 30.0429 26.7523 30.0429 27.6391V40.1162L22.3085 40.1166L22.3086 40.1238ZM22.5765 21.3494L21.8135 20.2426C21.6485 20.0087 21.3324 19.947 21.0985 20.112C20.8647 20.277 20.8029 20.5932 20.9679 20.827L23.3742 24.3124C23.6974 24.7868 24.3092 24.9653 24.8453 24.7386L26.88 23.8379C27.2583 23.6797 27.698 23.8447 27.8562 24.2162C27.9386 24.3951 27.9386 24.5945 27.8701 24.7801C27.8012 24.9657 27.6639 25.1101 27.485 25.1857L25.4432 26.0792C24.2332 26.6015 22.8652 26.1753 22.164 25.1512L19.751 21.6659C19.586 21.432 19.2698 21.3703 19.036 21.5353C18.8021 21.7003 18.7404 22.0165 18.9054 22.2503L21.1534 25.4951C20.8578 26.4163 20.7339 27.3581 20.6239 28.2654C20.3834 30.2796 20.191 31.8746 18.1559 32.5414C17.8121 32.5825 17.503 32.5687 17.2209 32.507C16.4715 32.3487 15.9147 31.854 15.523 31.0084C14.0723 27.8736 15.633 20.9649 18.3483 18.4904C19.3934 17.5347 20.4658 17.363 21.5449 17.9609C22.5764 18.8197 22.762 20.2565 22.5764 21.3498L22.5765 21.3494ZM21.5662 38.9683C21.5935 39.2433 21.518 39.5112 21.3395 39.7177C21.1677 39.931 20.92 40.0616 20.6244 40.0889H20.5694C20.0265 40.0956 19.5659 39.6971 19.5177 39.1609L18.9265 33.352C19.8615 32.9464 20.4456 32.362 20.8306 31.6679L21.5662 38.9683ZM14.7123 31.6884C15.1661 32.5408 15.8123 33.1252 16.6097 33.4003L16.0185 39.168C15.9912 39.443 15.8535 39.6904 15.6402 39.8692C15.427 40.041 15.159 40.1236 14.8773 40.096C14.3617 40.0477 13.9561 39.5942 13.9561 39.0715C13.9561 39.0442 13.9561 39.0165 13.9628 38.9754L14.7123 31.6884ZM17.0425 39.2777L17.6199 33.5993C17.6749 33.5993 17.7232 33.6131 17.7782 33.6131C17.8193 33.6131 17.8676 33.6064 17.9087 33.6064L18.4861 39.278C18.5134 39.5875 18.6167 39.876 18.7679 40.1304H16.7466C16.912 39.8689 17.0081 39.5804 17.0425 39.2777ZM42.9671 42.7974C42.9671 42.8936 42.8915 42.9692 42.7954 42.9692L1.20415 42.9695C1.10799 42.9695 1.03241 42.894 1.03241 42.7978V41.3266C1.03241 41.2304 1.10799 41.1549 1.20415 41.1549H42.8017C42.8979 41.1549 42.9735 41.2304 42.9735 41.3266L42.9738 42.7974L42.9671 42.7974Z" fill="white"/>
<path d="M23.5387 16.5988C25.4155 16.5988 26.9417 15.0659 26.9417 13.1891C26.9417 11.3123 25.4155 9.77929 23.5387 9.77929C21.6551 9.77929 20.1289 11.3123 20.1289 13.1891C20.1289 15.0659 21.6548 16.5988 23.5387 16.5988ZM23.5387 10.8034C24.8449 10.8034 25.9105 11.8689 25.9105 13.182C25.9105 14.495 24.8449 15.5606 23.5387 15.5606C22.2257 15.5606 21.16 14.495 21.16 13.182C21.1597 11.869 22.2254 10.8034 23.5387 10.8034Z" fill="white"/>
</g>
<defs>
<clipPath id="clip0_121_717">
<rect width="44" height="44" fill="white"/>
</clipPath>
</defs>
</svg>
