<svg width="159" height="41" viewBox="0 0 159 41" fill="none" xmlns="http://www.w3.org/2000/svg">
<path d="M64.2826 7.03246C62.5377 4.51035 59.9931 3.26758 56.7214 3.26758C53.1589 3.26758 50.1416 4.65656 47.597 7.39798C45.0887 10.1394 43.4528 13.356 42.7621 17.0843C42.0714 21.2147 42.6167 24.5775 44.398 27.1727C46.1065 29.6217 48.6148 30.828 51.9229 30.828C55.5217 30.828 58.5753 29.4755 61.1563 26.7341C63.701 23.9927 65.3005 20.7761 65.9548 17.0478C66.6819 13.0636 66.1366 9.70077 64.2826 7.03246ZM58.7934 17.0843C58.2482 20.3009 57.3394 22.9327 56.067 24.9065C54.8311 26.8803 53.5951 27.8672 52.4318 27.8672C51.3776 27.8672 50.5779 27.1362 49.9962 25.6741C49.4146 24.212 49.2692 22.1285 49.56 19.4602C49.4873 19.2043 49.4146 19.0581 49.3419 19.0216C48.6148 18.4733 48.1423 17.596 47.8878 16.4995C47.597 15.2933 47.706 14.0139 48.215 12.6249C48.324 12.5153 48.3967 12.5153 48.3967 12.6249C48.3967 16.2802 49.8872 18.1078 52.8317 18.1078C54.4312 18.0347 55.7399 17.5229 56.7214 16.5726C57.7029 15.6222 58.3209 14.6719 58.6117 13.685C58.8661 12.7346 58.7934 11.8574 58.3936 11.0166C57.9937 10.1759 57.1576 9.70077 55.9216 9.62766C55.4127 9.62766 54.9401 9.70077 54.5766 9.84698C54.4312 9.92008 54.3948 10.0297 54.4675 10.1394C54.6856 10.8704 54.6856 11.6015 54.3948 12.3325C54.2131 13.2098 53.7041 13.685 52.868 13.7581C52.0319 13.7581 51.7411 12.8808 51.9592 11.0898C52.141 9.95663 52.6136 8.89662 53.3406 7.90971C54.0677 6.9228 55.0128 6.37452 56.1761 6.30141C57.3394 6.30141 58.2118 7.25177 58.7934 9.18904C59.4114 11.0898 59.3751 13.7581 58.7934 17.0843ZM82.6405 11.236C80.423 11.3091 78.6417 12.0036 77.2967 13.2829C77.3694 12.9174 77.4058 12.6981 77.4058 12.5884C77.7329 11.2725 77.6239 10.6146 77.0059 10.6146C76.8241 10.6146 76.6787 10.6511 76.5697 10.6877C76.3152 10.7608 75.7699 11.0166 74.8974 11.4918C74.025 11.967 73.1525 12.3325 72.2074 12.6615C71.2622 12.9905 70.2807 13.1367 69.3356 13.1367C69.0811 13.1367 68.9357 13.2829 68.9357 13.5388L68.8266 14.1601C68.7539 14.3063 68.7903 14.3795 69.0084 14.3795C70.0263 14.3795 70.4625 14.9277 70.2807 16.0609L68.4268 26.4417C68.2814 27.392 67.9905 28.1231 67.627 28.5983C67.2635 29.0734 66.8636 29.439 66.5365 29.5852C66.2093 29.7314 66.0275 29.841 66.0275 29.8776L66.1002 30.17C66.0639 30.2066 66.0639 30.2431 66.1002 30.2797C66.1366 30.3162 66.1729 30.3528 66.2093 30.3528H75.9153C76.0244 30.3528 76.1334 30.2797 76.2061 30.1335V29.9141C76.2425 29.841 76.1698 29.7679 76.0244 29.6583C75.8426 29.5486 75.6608 29.4024 75.4791 29.2197C75.261 29.0003 75.1156 28.6714 75.0429 28.1596C74.9338 27.6479 74.9702 26.9534 75.1156 26.1127C75.1156 26.0762 75.1883 25.6741 75.2973 24.943C75.4427 24.212 75.6245 23.152 75.8426 21.7996C76.0971 20.4106 76.3152 19.2409 76.4969 18.2174C76.8241 17.0843 77.333 16.2802 77.951 15.805C78.3873 15.3664 78.9325 15.1105 79.5869 15.1105C80.2049 15.1105 80.6774 15.2933 80.9319 15.6588C81.4045 16.2071 81.5135 17.3402 81.2591 18.985C81.2227 19.0216 81.0773 19.7892 80.8229 21.2878L79.9141 26.4782C79.7686 27.4286 79.4778 28.1596 79.1143 28.6348C78.7508 29.11 78.3509 29.4755 78.0601 29.5852C77.7329 29.7314 77.5875 29.8045 77.5875 29.8776V30.17C77.5512 30.2066 77.5512 30.2431 77.5875 30.2797C77.6239 30.3162 77.6602 30.3528 77.6966 30.3528H87.4026C87.5117 30.3528 87.6207 30.2797 87.6934 30.1335V29.9141C87.7298 29.841 87.6571 29.7679 87.5117 29.6583C87.3299 29.5486 87.1481 29.4024 86.9664 29.2197C86.7846 29.0003 86.6392 28.6714 86.5301 28.1596C86.4211 27.6479 86.4574 26.9534 86.6028 26.1127L88.0206 17.9981C88.4205 15.9512 88.0933 14.3429 87.0027 13.1001C86.0212 11.8208 84.5671 11.236 82.6405 11.236ZM100.707 11.7111C100.671 11.6015 100.598 11.5649 100.526 11.5284C100.417 11.4918 100.344 11.4553 100.235 11.4553C100.053 11.4553 99.9077 11.4918 99.7987 11.5284C99.6169 11.6015 99.1807 11.7477 98.5264 11.967C97.872 12.1863 97.3267 12.3691 96.8542 12.5153C96.3816 12.6615 95.7636 12.8077 94.9638 12.9539C94.1641 13.1001 93.4007 13.1367 92.6737 13.1367C92.4192 13.1367 92.2738 13.2829 92.2738 13.5388L92.1647 14.1601C92.092 14.3063 92.1284 14.3795 92.3465 14.3795C93.3643 14.3795 93.8006 14.9277 93.6188 16.0609L91.7649 26.4417C91.6194 27.392 91.3286 28.1231 90.9651 28.5983C90.6016 29.0734 90.2017 29.439 89.8745 29.5852C89.5474 29.7314 89.3656 29.841 89.3656 29.8776L89.4383 30.17C89.402 30.2066 89.402 30.2431 89.4383 30.2797C89.4747 30.3162 89.511 30.3528 89.5474 30.3528H99.1807C99.2898 30.3528 99.3988 30.2797 99.4715 30.1335V29.9141C99.5079 29.841 99.4352 29.7679 99.2898 29.6583C99.108 29.5486 98.9262 29.4024 98.7445 29.2197C98.5264 29.0003 98.381 28.6714 98.3082 28.1596C98.1992 27.6479 98.2355 26.9534 98.381 26.1127C98.381 26.0762 98.5264 25.1989 98.8172 23.481C99.108 21.763 99.4352 19.8623 99.835 17.7788C100.199 15.6953 100.453 14.2698 100.635 13.5022C100.635 13.4291 100.671 13.3194 100.707 13.1732C100.744 13.027 100.78 12.9174 100.78 12.8077C100.817 12.6981 100.817 12.5884 100.853 12.4422C100.889 12.296 100.889 12.1863 100.853 12.0767C100.744 11.8939 100.744 11.7842 100.707 11.7111ZM97.3267 11.0898C98.3446 11.0898 99.2534 10.7608 100.09 10.1028C100.926 9.4449 101.435 8.64075 101.616 7.6904C101.762 6.74004 101.544 5.93589 100.926 5.27795C100.344 4.62001 99.5079 4.29104 98.5264 4.29104C97.5448 4.29104 96.6724 4.62001 95.8363 5.27795C95.0002 5.93589 94.5276 6.74004 94.3822 7.6904C94.2368 8.64075 94.4549 9.4449 95.0366 10.1028C95.5818 10.7973 96.3452 11.0898 97.3267 11.0898ZM111.104 29.5852C110.922 29.4755 110.741 29.3293 110.559 29.1466C110.341 28.9272 110.195 28.5983 110.123 28.0865C110.014 27.5748 110.05 26.8803 110.195 26.0396C110.377 25.5279 111.613 18.583 113.831 5.27795C114.158 3.96207 114.049 3.30413 113.503 3.30413C113.467 3.30413 113.285 3.34068 112.995 3.41379C112.922 3.45034 112.522 3.59655 111.795 3.85241C111.068 4.10828 110.486 4.29104 110.05 4.4007C109.614 4.51035 108.996 4.62001 108.196 4.76622C107.396 4.91243 106.633 4.94898 105.869 4.94898C105.688 4.94898 105.542 5.09519 105.47 5.35105L105.361 5.93589C105.361 6.0821 105.433 6.1552 105.542 6.1552C105.942 6.1552 106.306 6.30141 106.597 6.59383C106.887 6.88625 106.96 7.32487 106.851 7.83661L103.579 26.4051C103.434 27.3555 103.143 28.0865 102.78 28.5617C102.416 29.0369 102.016 29.4024 101.689 29.5486C101.362 29.6948 101.18 29.8045 101.18 29.841L101.253 30.1335C101.216 30.17 101.216 30.2066 101.253 30.2431C101.289 30.2797 101.325 30.3162 101.362 30.3162H111.068C111.177 30.3162 111.286 30.2431 111.359 30.0969V29.8776C111.322 29.7679 111.286 29.6583 111.104 29.5852ZM120.992 11.0898C122.01 11.0898 122.919 10.7608 123.755 10.1028C124.591 9.4449 125.1 8.64075 125.282 7.6904C125.427 6.74004 125.209 5.93589 124.591 5.27795C124.009 4.62001 123.173 4.29104 122.192 4.29104C121.21 4.29104 120.338 4.62001 119.502 5.27795C118.665 5.93589 118.193 6.74004 118.047 7.6904C117.902 8.64075 118.12 9.4449 118.702 10.1028C119.247 10.7973 120.047 11.0898 120.992 11.0898ZM123.137 30.0604V29.841C123.173 29.7679 123.1 29.6948 122.955 29.5852C122.773 29.4755 122.591 29.3293 122.41 29.1466C122.192 28.9272 122.046 28.5983 121.974 28.0865C121.864 27.5748 121.901 26.8803 122.046 26.0396C122.046 26.0031 122.192 25.1258 122.482 23.4079C122.773 21.6899 123.1 19.7892 123.5 17.7057C123.864 15.6222 124.118 14.1967 124.3 13.4291C124.3 13.356 124.336 13.2463 124.373 13.1001C124.409 12.9539 124.445 12.8443 124.445 12.7346C124.482 12.6249 124.482 12.5153 124.518 12.3691C124.555 12.2229 124.555 12.1132 124.518 12.0036C124.482 11.8939 124.482 11.8208 124.445 11.7111C124.409 11.6015 124.336 11.5649 124.264 11.5284C124.155 11.4918 124.082 11.4553 123.973 11.4553C123.791 11.4553 123.646 11.4918 123.537 11.5284C123.355 11.6015 122.919 11.7477 122.264 11.967C121.61 12.1863 121.065 12.3691 120.592 12.5153C120.12 12.6615 119.502 12.8077 118.702 12.9539C117.902 13.1001 117.139 13.1367 116.412 13.1367C116.157 13.1367 116.012 13.2829 116.012 13.5388L115.903 14.1601C115.83 14.3063 115.866 14.3795 116.084 14.3795C117.102 14.3795 117.539 14.9277 117.357 16.0609L115.503 26.4417C115.357 27.392 115.067 28.1231 114.703 28.5983C114.34 29.0734 113.94 29.439 113.613 29.5852C113.285 29.7314 113.104 29.841 113.104 29.8776L113.176 30.17C113.14 30.2066 113.14 30.2431 113.176 30.2797C113.213 30.3162 113.249 30.3528 113.285 30.3528H122.991C122.955 30.2797 123.064 30.2066 123.137 30.0604ZM140.804 15.1105L141.131 13.356C141.131 13.1732 141.022 13.0636 140.84 13.0636H135.533C135.824 11.4187 136.078 10.0297 136.333 8.89662C136.587 7.25177 137.241 6.41107 138.296 6.41107C139.132 6.41107 139.35 6.9959 139.023 8.20213C138.841 9.07938 138.441 9.55456 137.787 9.62766C137.641 9.66422 137.569 9.73732 137.569 9.84698C137.569 10.3587 137.859 10.8704 138.405 11.3456C138.95 11.8208 139.677 12.0767 140.586 12.1132C141.858 12.1132 142.876 11.7111 143.676 10.9435C144.403 10.3587 144.766 9.62766 144.839 8.78696C144.984 7.10556 144.403 5.82623 143.13 5.02208C141.858 4.18138 140.295 3.77931 138.514 3.77931C135.678 3.77931 133.461 4.58346 131.934 6.19176C130.371 7.80005 129.426 9.66422 129.062 11.8573C129.062 11.8939 128.989 12.296 128.844 13.1001H127.172C126.917 13.1001 126.772 13.2098 126.772 13.3925L126.445 15.147C126.445 15.3298 126.554 15.4395 126.772 15.4395H128.444C127.644 19.8623 126.481 26.6244 124.918 35.6894V35.7625C124.809 36.457 124.555 36.9687 124.118 37.4074C123.755 37.6998 123.282 37.846 122.701 37.846C122.083 37.846 121.574 37.6267 121.246 37.2246C121.028 36.8225 120.956 36.4204 121.065 36.0915C121.246 35.3604 121.61 34.9949 122.192 34.9218C122.301 34.8852 122.373 34.8121 122.373 34.7025C122.41 34.2273 122.192 33.7521 121.683 33.3135C121.174 32.8749 120.483 32.6556 119.647 32.6556C118.447 32.6556 117.502 32.9845 116.775 33.679C116.157 34.1908 115.757 34.8852 115.648 35.7259C115.539 37.2246 116.194 38.3577 117.648 39.1253C119.102 39.8929 120.665 40.295 122.373 40.295C124.991 40.295 127.172 39.6736 128.88 38.4674C130.589 37.2611 131.643 35.397 132.007 32.9114L132.516 30.1335C132.843 28.2693 133.279 25.8568 133.788 22.9327C134.297 20.0085 134.769 17.5229 135.133 15.476H140.477C140.695 15.4029 140.804 15.2933 140.804 15.1105ZM157.526 13.9408C156.181 12.1863 154.109 11.2725 151.346 11.2725C148.62 11.2725 146.22 12.1863 144.185 14.0505C142.149 15.8781 140.877 18.1809 140.331 20.9223C139.822 23.8465 140.295 26.2224 141.858 28.0134C143.276 29.7314 145.493 30.6086 148.474 30.6086C150.51 30.6086 152.437 30.0238 154.291 28.8176C156.145 27.6114 157.344 26.0762 157.853 24.1754C158.108 23.3347 157.889 22.823 157.162 22.6403C157.09 22.6037 156.944 22.5672 156.763 22.5672C156.072 22.5672 155.527 22.9327 155.09 23.7003C154.218 25.3451 152.909 26.2224 151.092 26.3686C149.965 26.4051 149.092 25.9665 148.438 25.0161C147.784 24.0658 147.565 22.7499 147.711 21.0685V20.9589L157.962 20.8857H158.18C158.507 20.8857 158.689 20.7761 158.726 20.5568C159.344 17.8154 158.907 15.5857 157.526 13.9408ZM152.582 18.6561H148.111C148.438 17.2305 148.91 16.0243 149.528 15.0739C150.11 14.1236 150.692 13.6484 151.273 13.6484C151.891 13.6484 152.364 14.087 152.655 15.0008C152.909 15.9146 152.873 17.1209 152.582 18.6561Z" fill="#58764F"/>
<path fill-rule="evenodd" clip-rule="evenodd" d="M16.8801 0C15.3518 0 13.88 0.204333 12.4648 0.578942C30.9413 -0.192981 32.4923 25.0875 18.8953 27.3124C30.8846 19.7635 26.4806 2.5428 14.5706 1.32816C19.0425 3.25797 21.6011 8.23006 19.6878 13.293C18.6689 15.9947 16.7782 18.6397 15.1706 21.1711C13.2347 24.2021 12.6233 26.9719 13.3705 29.1401C15.397 35.0998 22.371 33.6695 26.3788 30.9223C30.8394 27.88 33.7603 22.749 33.7603 16.9255C33.7603 7.58301 26.1976 0 16.8801 0Z" fill="#58764F"/>
<path fill-rule="evenodd" clip-rule="evenodd" d="M18.1142 12.6913C18.8727 10.6821 18.9406 8.77495 17.7066 6.98136C17.6726 10.0804 15.148 12.5892 12.0459 12.5892C10.2119 12.5892 8.58158 11.7151 7.55134 10.3642C6.88338 9.58093 6.45317 8.60467 6.41921 7.49219C6.39656 7.29921 6.38524 7.10623 6.38524 6.91325C6.38524 4.6883 7.66456 2.75849 9.52126 1.82764C9.64579 1.71412 9.78165 1.61196 9.90618 1.49844C4.06437 4.16611 0 10.0691 0 16.9255C0 25.6891 6.64563 32.8975 15.1593 33.7603C13.6083 32.8294 12.3742 31.4218 11.7742 29.6736C10.676 26.4497 12.012 22.9647 13.7554 20.2403C15.2612 17.8791 17.1179 15.3363 18.1142 12.6913Z" fill="#D1793E"/>
<path d="M12.1591 11.1815C14.5726 11.1815 16.5292 9.21973 16.5292 6.79973C16.5292 4.37973 14.5726 2.41793 12.1591 2.41793C9.74562 2.41793 7.78909 4.37973 7.78909 6.79973C7.78909 9.21973 9.74562 11.1815 12.1591 11.1815Z" fill="#D1793E"/>
</svg>
