<svg width="44" height="44" viewBox="0 0 44 44" fill="none" xmlns="http://www.w3.org/2000/svg">
<g clip-path="url(#clip0_121_741)">
<path d="M7.6007 39.1484L13.3976 43.8358C13.5282 43.9413 13.6909 43.9989 13.8585 43.9989H20.9708C21.3757 43.9989 21.7041 43.6705 21.7041 43.2656V38.4603C21.7041 37.2611 21.5119 36.0764 21.1325 34.9384C20.0043 31.554 17.7169 28.6488 14.6916 26.758C13.8339 26.2217 13.0783 25.5493 12.4461 24.7593L11.7001 23.8266C11.0312 22.9905 9.96397 22.6222 8.95726 22.8045L5.65764 15.6556C4.99601 14.2223 3.32969 13.5585 1.86396 14.1451C0.556128 14.6683 -0.207032 16.0534 0.0493378 17.4385L2.44769 30.3895C3.08181 33.8145 4.90956 36.9233 7.60023 39.1483L7.6007 39.1484ZM2.40918 15.5069C3.15003 15.2103 3.99207 15.5459 4.32664 16.2703L7.63154 23.4308C7.12869 23.856 6.78466 24.4463 6.66641 25.104C6.52072 25.9143 6.73221 26.7474 7.24652 27.39L11.5987 32.8304C11.8518 33.1466 12.3134 33.198 12.6293 32.945C12.9455 32.6919 12.9969 32.2303 12.7439 31.9144L8.39169 26.474C8.1419 26.162 8.03911 25.7571 8.11015 25.3636C8.18086 24.9701 8.41788 24.6263 8.76097 24.4207C9.35287 24.0655 10.1242 24.2043 10.5556 24.7432L11.3017 25.6759C12.0373 26.5955 12.9167 27.378 13.9149 28.0019C16.6517 29.7125 18.7211 32.3407 19.7418 35.4026C20.0712 36.3907 20.2381 37.4196 20.2381 38.4606V42.5326H14.1188L8.52976 38.0131C6.11013 36.0122 4.46245 33.2099 3.89079 30.1227L1.49244 17.1718C1.3628 16.4715 1.74845 15.7716 2.40973 15.5071L2.40918 15.5069Z" fill="white"/>
<path d="M42.1348 14.1458C40.6689 13.5595 39.0025 14.2231 38.3408 15.6563L35.0412 22.8053C34.0348 22.6229 32.9676 22.9912 32.2984 23.8273L31.5523 24.76C31.5458 24.7682 31.5386 24.7761 31.532 24.7842V15.7665C31.532 15.5641 31.6964 15.3998 31.8987 15.3998C32.101 15.3998 32.2653 15.5641 32.2653 15.7665V16.8664C32.2653 17.2714 32.5937 17.5998 32.9987 17.5998H35.1986C35.6036 17.5998 35.932 17.2714 35.932 16.8664V15.7665C35.932 13.7564 34.4744 12.0766 32.5102 11.7793C32.1177 11.3037 31.5238 10.9999 30.8602 10.9999H28.2321L27.2061 9.63211C28.4792 8.86016 29.332 7.4613 29.332 5.86659C29.332 3.44042 27.3583 1.46664 24.9321 1.46664C24.8895 1.46664 24.8476 1.46861 24.8057 1.46992C24.5 0.603337 23.6717 0 22.7321 0C21.5192 0 20.5322 0.987013 20.5322 2.19997C20.5322 2.75979 20.7401 3.28521 21.1116 3.68824C20.7437 4.33122 20.5322 5.07435 20.5322 5.8666C20.5322 6.55834 20.6932 7.21306 20.9787 7.79612C19.2616 8.85127 17.9377 10.4521 17.2273 12.3467C17.2171 12.3742 16.2693 16.2657 16.2693 16.2657C16.084 17.036 16.1675 17.8361 16.5067 18.523L17.512 20.5334L16.2094 23.1387C16.0958 23.3662 16.1079 23.636 16.2415 23.8524C16.3751 24.0684 16.6111 24.2 16.8655 24.2H18.1999L17.609 27.7461C17.5736 27.9589 17.6335 28.1763 17.7726 28.3407C17.9121 28.5053 18.1167 28.6 18.3321 28.6H22.7321C23.0906 28.6 23.3963 28.3407 23.4556 27.9871L24.0868 24.2H24.1987C24.5484 24.2 24.8492 23.9531 24.918 23.6104L25.3452 21.4746C25.5744 20.3281 25.4126 19.1211 24.8901 18.0757L23.5521 15.4001L24.3997 13.7046L25.8801 15.1853C26.0176 15.3228 26.2042 15.4001 26.3987 15.4001H27.8837C27.8725 15.5219 27.8653 27.7811 27.8653 27.7811C25.5554 29.6268 23.8071 32.116 22.866 34.9395C22.4869 36.0772 22.2944 37.2623 22.2944 38.4614V43.2667C22.2944 43.6716 22.6227 44 23.0277 44H30.1399C30.3079 44 30.4706 43.9424 30.6009 43.837L36.404 39.1444C39.0884 36.9244 40.9159 33.8157 41.5503 30.3906L43.9487 17.4396C44.205 16.0545 43.4419 14.6693 42.134 14.1462L42.1348 14.1458ZM30.0664 15.7667V26.226C29.831 26.4093 29.5871 26.5822 29.3331 26.7423V15.7667C29.3331 15.6436 29.3429 15.5212 29.3599 15.4001H30.1031C30.0789 15.5186 30.0661 15.6413 30.0661 15.7667L30.0664 15.7667ZM34.4664 15.7667V16.1334H33.733V15.7667C33.733 15.1689 33.444 14.6382 32.9997 14.3037V13.4453C33.8745 13.8575 34.4664 14.745 34.4664 15.7667ZM31.5331 13.1385V13.9334H30.0664V12.4668H30.8613C31.2316 12.4668 31.5331 12.768 31.5331 13.1385ZM22.3761 7.30171C23.3891 7.17469 24.3001 6.66332 24.9333 5.89297C25.5665 6.66361 26.4776 7.17465 27.4905 7.30171C26.987 8.1951 26.0297 8.80045 24.9333 8.80045C23.8369 8.80045 22.8797 8.19546 22.3761 7.30171ZM27.8663 5.86221C26.8448 5.81343 25.9547 5.14656 25.629 4.16836C25.5292 3.86881 25.2489 3.66681 24.9333 3.66681C24.6177 3.66681 24.3375 3.86881 24.2376 4.16836C23.9119 5.14623 23.0214 5.81343 22.0004 5.86221C22.003 4.24697 23.3178 2.93352 24.9337 2.93352C26.5496 2.93352 27.8644 4.24697 27.867 5.86221H27.8663ZM22.733 1.46687C22.9739 1.46687 23.193 1.58539 23.3275 1.77133C22.8672 1.95238 22.4449 2.20871 22.0753 2.52528C22.0262 2.42576 21.9997 2.31511 21.9997 2.2002C21.9997 1.79589 22.3287 1.46687 22.733 1.46687ZM19.6877 24.1999H20.4008L19.912 27.1332H19.199L19.6881 24.1999H19.6877ZM22.112 27.1332H21.399L21.8881 24.1999H22.6011L22.112 27.1332ZM23.908 21.1871L23.5986 22.7333H18.0532L18.9892 20.8613C19.0923 20.6548 19.0923 20.4118 18.9892 20.2056L17.8253 17.8777C17.8233 17.8737 17.823 17.8727 17.8207 17.8688C17.6354 17.494 17.5912 17.0464 17.6966 16.6091L17.8112 16.1337H22.2802L23.5793 18.7321C23.9571 19.4874 24.0736 20.3595 23.908 21.1875L23.908 21.1871ZM24.7186 11.948C24.5519 11.7814 24.3153 11.7051 24.0825 11.7428C23.8497 11.7804 23.6494 11.9277 23.544 12.1386L22.28 14.6666H18.1668L18.6166 12.8215C19.2285 11.2173 20.3668 9.86755 21.8386 8.99149C22.6342 9.77916 23.7276 10.267 24.933 10.267C25.225 10.267 25.5105 10.2378 25.7869 10.1832L27.2797 12.1736C27.4181 12.3583 27.6355 12.4669 27.8663 12.4669H28.5996V13.9336H26.7035L24.7182 11.9483L24.7186 11.948ZM42.5078 17.172L40.1094 30.1229C39.5378 33.2104 37.8902 36.0124 35.4767 38.0085L29.8815 42.5328H23.7622V38.4609C23.7622 37.4195 23.9291 36.3905 24.2585 35.4029C25.2789 32.3409 27.3486 29.7127 30.0854 28.0022C31.0839 27.3782 31.9629 26.5954 32.6986 25.6758L33.4447 24.7434C33.8758 24.2046 34.6471 24.0658 35.2393 24.421C35.5824 24.6265 35.8195 24.9703 35.8902 25.3638C35.9609 25.7573 35.8581 26.1623 35.6086 26.4743L31.2564 31.9146C31.0034 32.2309 31.0548 32.6925 31.371 32.9452C31.6873 33.1983 32.1489 33.1469 32.4016 32.8306L36.7538 27.3906C37.2681 26.7476 37.4792 25.9145 37.3339 25.1046C37.2157 24.4469 36.8716 23.8569 36.3688 23.4313L39.6737 16.2709C40.0082 15.5464 40.8503 15.2109 41.5911 15.5075C42.2521 15.772 42.6377 16.4719 42.5081 17.1718L42.5078 17.172Z" fill="white"/>
</g>
<defs>
<clipPath id="clip0_121_741">
<rect width="44" height="44" fill="white"/>
</clipPath>
</defs>
</svg>
