<svg width="38" height="44" viewBox="0 0 38 44" fill="none" xmlns="http://www.w3.org/2000/svg">
<g clip-path="url(#clip0_121_753)">
<path d="M38.1333 25.6666V24.9332C38.1333 23.424 36.9842 22.1921 35.5168 22.0324C35.4913 21.7852 35.4229 21.5397 35.3063 21.3062L30.4569 11.607C30.124 10.9411 29.6597 10.359 29.112 9.869C30.9627 9.09246 32.2667 7.26271 32.2667 5.13313C32.2667 4.38572 32.1023 3.67762 31.8142 3.03598C32.3862 2.74134 32.9302 2.41854 33.4269 2.06304L32.5734 0.870104C32.102 1.2073 31.5782 1.51406 31.0233 1.79334C30.0814 0.69729 28.6881 0 27.1333 0C24.5893 0 22.4773 1.86282 22.0747 4.2942C21.5378 4.36819 21.2117 4.40125 21.1961 4.40289L21.3362 5.86301C21.3889 5.85777 21.6436 5.83224 22.0446 5.78084C22.1203 6.37405 22.2961 6.93514 22.5567 7.44788C20.5825 8.50823 18.5908 10.9803 18.3269 12.8709L17.1873 21.0036L13.5897 13.8076C13.2567 13.1417 12.7925 12.5596 12.2448 12.0695C14.0961 11.2927 15.4 9.4629 15.4 7.33332C15.4 4.50284 13.0966 2.20002 10.2668 2.20002C7.98162 2.20002 6.04127 3.70204 5.37834 5.7707C4.86141 5.37686 4.22404 5.13329 3.526 5.13329C1.83055 5.13329 0.452558 6.51186 0.452558 8.2074C0.452558 9.90286 1.83113 11.2815 3.526 11.2815C3.55612 11.2815 3.58329 11.2733 3.61242 11.2727C2.49642 12.4329 1.62883 13.8688 1.46088 15.0706L0.0197865 25.3564C-0.107234 26.2613 0.387104 27.1554 1.22094 27.5286C1.48055 27.6451 1.75685 27.7018 2.03284 27.7067L0.754749 32.823C0.700404 33.0423 0.74951 33.2741 0.888977 33.4522C1.02812 33.6306 1.24091 33.7334 1.4668 33.7334H2.20013V43.2667C2.20013 43.6713 2.52784 44 2.93345 44H7.33342C7.73904 44 8.06675 43.6713 8.06675 43.2667C8.06675 43.6713 8.39446 44 8.80008 44H13.2C13.6057 44 13.9334 43.6713 13.9334 43.2667V42.5333C13.9334 41.5771 13.3202 40.7615 12.4667 40.4587V33.7334H13.2C13.4282 33.7334 13.643 33.627 13.7815 33.4466C13.9199 33.2656 13.9671 33.0309 13.9085 32.8109L11.0142 21.9568L11.2672 20.1856L14.7511 25.6057C15.0622 26.0889 15.5431 26.4196 16.1055 26.5371C16.2515 26.5679 16.3982 26.5826 16.5448 26.5826C16.9593 26.5826 17.3646 26.4608 17.7182 26.2254C18.0246 26.0208 18.257 25.7452 18.4178 25.4364C18.588 25.4803 18.7602 25.5104 18.9341 25.5104C19.0441 25.5104 19.1534 25.4898 19.2628 25.4715L19.7879 40.7096L17.16 42.6794C16.907 42.8687 16.8045 43.1987 16.904 43.4979C17.0045 43.7978 17.2841 43.9994 17.6 43.9994H29.3333C29.6492 43.9994 29.9294 43.7978 30.0286 43.4979C30.1291 43.198 30.0257 42.8687 29.7726 42.6794L27.145 40.7089L27.8636 19.8682L28.1327 17.9851L31.6167 23.4052C31.8141 23.7116 32.0845 23.948 32.3955 24.1159C32.3202 24.3768 32.2665 24.6476 32.2665 24.9327V42.5326H31.5332V43.9992H34.4665V42.5326H33.7332V24.9327C33.7332 24.7157 33.7839 24.511 33.8687 24.3254C34.1201 24.2691 34.3631 24.1722 34.5844 24.0239C34.8109 23.873 34.9995 23.6838 35.1475 23.471C35.1645 23.4703 35.1815 23.466 35.1998 23.466C36.0088 23.466 36.6665 24.1238 36.6665 24.9327V25.666L38.1333 25.6666ZM27.1334 1.46675C28.0824 1.46675 28.9395 1.83865 29.5913 2.43189C27.5432 3.2415 25.3026 3.74761 23.6513 4.04387C24.1185 2.55559 25.4935 1.46675 27.1334 1.46675ZM30.4818 3.65366C30.6834 4.10675 30.8 4.60598 30.8 5.13339C30.8 7.15528 29.1552 8.80003 27.1333 8.80003C25.2581 8.80003 23.7257 7.38022 23.51 5.56224C25.3419 5.2545 28.0412 4.6721 30.4818 3.65366H30.4818ZM10.2671 11C8.39117 11 6.85704 9.57819 6.64367 7.75795C8.42201 7.45742 11.1523 6.86781 13.611 5.84476C13.8149 6.3008 13.9338 6.80236 13.9338 7.33337C13.9338 9.35526 12.289 11 10.2671 11H10.2671ZM10.2671 3.66673C11.2139 3.66673 12.0696 4.037 12.7207 4.62827C10.6461 5.44967 8.39837 5.9548 6.78438 6.24386C7.25155 4.75658 8.62717 3.66673 10.2671 3.66673ZM1.91894 8.2075C1.91894 7.32097 2.64048 6.60004 3.52639 6.60004C4.41292 6.60004 5.13385 7.32094 5.13385 8.2075C5.13385 9.09403 4.41296 9.81495 3.52639 9.81495C2.64053 9.81495 1.91894 9.09341 1.91894 8.2075ZM5.13377 33.7332V40.3331H3.66711V33.7332H5.13377ZM3.66711 42.5331V41.7998H5.86709C6.27173 41.7998 6.60042 42.1291 6.60042 42.5331H3.66711ZM6.60042 40.4585V33.7332H8.06708V42.5331C8.06708 41.5769 7.4539 40.7613 6.60042 40.4585ZM9.53373 42.5331V41.7998H11.7337C12.1384 41.7998 12.467 42.1291 12.467 42.5331H9.53373ZM11.0004 40.3331H9.53373V33.7332H11.0004V40.3331ZM2.40578 32.2665L3.77422 26.7885C3.91728 26.5751 4.03023 26.3397 4.08589 26.0807L4.81267 22.7333H9.70401L12.2458 32.2666L2.40578 32.2665ZM16.9047 25.0052C16.7568 25.1035 16.5783 25.1378 16.4055 25.1012C16.231 25.0651 16.082 24.9627 15.9851 24.8131L10.1509 15.7374L8.91735 16.53L10.0553 18.3001L9.63168 21.2665H5.1319L6.2515 16.1083L4.81795 15.7973L2.65333 25.7689C2.60128 26.0125 2.43333 26.129 2.33807 26.1775C2.2428 26.2259 2.04997 26.2917 1.82179 26.1893C1.58051 26.0806 1.43745 25.822 1.47346 25.5594L2.91456 15.2735C3.12146 13.7967 4.9548 11.6246 6.5475 10.8595C7.47435 11.8364 8.77699 12.4515 10.2236 12.464C11.1101 12.8834 11.8405 13.5836 12.2792 14.463L16.889 23.682C16.925 23.9842 17.0262 24.2709 17.1837 24.5259C17.163 24.7142 17.072 24.8926 16.9047 25.0049L16.9047 25.0052ZM21.6796 20.5333H26.3751L25.6926 40.3331H24.2007V26.3999H22.734V40.3331H21.2425L20.6961 24.4974C20.8097 24.3069 20.9043 24.1036 20.9527 23.8807L21.6796 20.5333ZM20.7783 41.7998H22.7341V42.5331H19.8007L20.7783 41.7998ZM24.2007 42.5331V41.7998H26.1565L27.134 42.5331H24.2007ZM27.0174 13.5369L25.7839 14.3295L26.9218 16.0996L26.4982 19.067H21.9984L23.118 13.9088L21.6845 13.5978L19.5198 23.5693C19.4678 23.8129 19.2998 23.9295 19.2046 23.9779C19.1087 24.0257 18.9171 24.0922 18.6883 23.9897C18.6529 23.9737 18.6245 23.9488 18.5937 23.9265C18.557 23.7835 18.5092 23.6427 18.4411 23.5055L18.3465 23.3156L19.7817 13.0733C19.9887 11.5965 21.822 9.42439 23.4147 8.6593C24.3415 9.63618 25.6442 10.2513 27.0908 10.2638C27.9773 10.6832 28.7077 11.3834 29.1464 12.2628L33.9958 21.962C34.039 22.0485 34.0561 22.1401 34.059 22.2318C33.7149 22.3778 33.4062 22.5883 33.1437 22.8469C33.0271 22.7955 32.9223 22.7222 32.8516 22.6129L27.0174 13.5369Z" fill="white"/>
</g>
<defs>
<clipPath id="clip0_121_753">
<rect width="38" height="44" fill="white"/>
</clipPath>
</defs>
</svg>
