<?xml version="1.0" standalone="no"?>
<!DOCTYPE svg PUBLIC "-//W3C//DTD SVG 1.1//EN" "http://www.w3.org/Graphics/SVG/1.1/DTD/svg11.dtd" >
<svg xmlns="http://www.w3.org/2000/svg">
<defs>
  <font id="onilife-icon-1.0.0" horiz-adv-x="1501.5">
    <font-face font-family="onilife-icon-1.0.0"
      units-per-em="1001" ascent="1001"
      descent="0" />
    <missing-glyph horiz-adv-x="0" />
    <glyph glyph-name="bars"
      unicode="&#xE001;"
      horiz-adv-x="875.875" d="M864.14453125 778.12109375H11.73046875C5.25525 778.12109375 0 783.37634375 0 789.8515625V789.8515625V836.7734375C0 843.24865625 5.25525 848.50390625 11.73046875 848.50390625V848.50390625H864.14453125C870.6197500000001 848.50390625 875.875 843.24865625 875.875 836.7734375V836.7734375V789.8515625C875.875 783.37634375 870.6197500000001 778.12109375 864.14453125 778.12109375V778.12109375zM864.14453125 465.30859375H11.73046875C5.25525 465.30859375 0 470.5638437499999 0 477.0390625V477.0390625V523.9609375C0 530.4361562500001 5.25525 535.69140625 11.73046875 535.69140625V535.69140625H864.14453125C870.6197500000001 535.69140625 875.875 530.4361562500001 875.875 523.9609375V523.9609375V477.0390625C875.875 470.5638437499999 870.6197500000001 465.30859375 864.14453125 465.30859375V465.30859375zM864.14453125 152.49609375H11.73046875C5.25525 152.49609375 0 157.7513437499999 0 164.2265625V164.2265625V211.1484375C0 217.6236562500001 5.25525 222.87890625 11.73046875 222.87890625V222.87890625H864.14453125C870.6197500000001 222.87890625 875.875 217.6236562500001 875.875 211.1484375V211.1484375V164.2265625C875.875 157.7513437499999 870.6197500000001 152.49609375 864.14453125 152.49609375V152.49609375z" />
    <glyph glyph-name="caret-down"
      unicode="&#xE002;"
      horiz-adv-x="625.625" d="M61.1939453125 625.625H564.2355468750001C599.0359375 625.625 616.4361328125 583.5908203125 591.8021484375001 558.9568359375L340.3791015625 307.33828125C325.1294921875 292.088671875 300.3 292.088671875 285.050390625 307.33828125L33.62734375 558.9568359375C8.993359375 583.5908203125 26.3935546875 625.625 61.1939453125 625.625z" />
    <glyph glyph-name="caret-left"
      unicode="&#xE003;"
      horiz-adv-x="375.375" d="M375.375 752.04426171875V248.95573828125C375.375 214.1201562499999 333.256751953125 196.674994140625 308.62472265625 221.3070234375L57.0804609375 472.85128515625C41.81130078125 488.1204453125 41.81130078125 512.8795546875 57.0804609375 528.14871484375L308.62472265625 779.6929765625C333.256751953125 804.3269609375 375.375 786.87984375 375.375 752.04426171875z" />
    <glyph glyph-name="caret-right"
      unicode="&#xE004;"
      horiz-adv-x="375.375" d="M0 248.9557382812501V752.04426171875C0 786.87984375 42.118248046875 804.325005859375 66.75027734375 779.6929765625L318.2945390625 528.14871484375C333.56369921875 512.8795546875 333.56369921875 488.1204453125 318.2945390625 472.85128515625L66.75027734375 221.3070234375001C42.118248046875 196.6730390625001 0 214.1201562499999 0 248.9557382812501z" />
    <glyph glyph-name="caret-up"
      unicode="&#xE005;"
      horiz-adv-x="625.625" d="M564.3567617187499 312.8125H61.26823828125C26.43265625 312.8125 8.987494140625 354.930748046875 33.6195234375 379.56277734375L285.16378515625 631.1070390625C300.4329453125 646.37619921875 325.1920546875 646.37619921875 340.46121484375 631.1070390625L592.0054765624999 379.56277734375C616.6394609375 354.930748046875 599.19234375 312.8125 564.3567617187499 312.8125z" />
    <glyph glyph-name="check-square"
      unicode="&#xE006;"
      horiz-adv-x="875.875" d="M782.03125 938.4375H93.84375C42.01462890625 938.4375 0 896.42287109375 0 844.59375V156.40625C0 104.57712890625 42.01462890625 62.5625 93.84375 62.5625H782.03125C833.86037109375 62.5625 875.875 104.57712890625 875.875 156.40625V844.59375C875.875 896.42287109375 833.86037109375 938.4375 782.03125 938.4375zM782.03125 875.875C799.280904296875 875.875 813.3125 861.84144921875 813.3125 844.59375V156.40625C813.3125 139.15855078125 799.280904296875 125.125 782.03125 125.125H93.84375C76.59605078125 125.125 62.5625 139.15855078125 62.5625 156.40625V844.59375C62.5625 861.84144921875 76.59605078125 875.875 93.84375 875.875H782.03125M714.970115234375 683.704505859375L698.4477499999999 700.361771484375C689.323400390625 709.5604140625001 674.468716796875 709.621021484375 665.27007421875 700.4947167968751L345.7301503906251 383.5179003906251L210.876681640625 519.4603476562501C201.75233203125 528.6589902343751 186.8976484375001 528.71959765625 177.699005859375 519.5932929687501L161.0417402343751 503.0709277343751C151.8430976562501 493.9465781250001 151.7824902343751 479.0918945312501 160.9087949218751 469.8932519531251L328.8069941406251 300.6382285156251C337.9313437500001 291.4395859375001 352.7860273437501 291.378978515625 361.9846699218751 300.5052832031251L714.8371699218751 650.5268300781252C724.033857421875 659.6511796875002 724.0944648437501 674.5058632812502 714.970115234375 683.7045058593751z" />
    <glyph glyph-name="circle"
      unicode="&#xE007;"
      horiz-adv-x="1001" d="M500.5 985.359375C232.654296875 985.359375 15.640625 768.345703125 15.640625 500.5S232.654296875 15.640625 500.5 15.640625S985.359375 232.654296875 985.359375 500.5S768.345703125 985.359375 500.5 985.359375zM922.796875 500.5C922.796875 268.4322265625 734.9138671874999 78.203125 500.5 78.203125C268.4322265625001 78.203125 78.203125 266.0861328125001 78.203125 500.5C78.203125 732.5677734374999 266.0861328125 922.796875 500.5 922.796875C732.5677734375 922.796875 922.796875 734.9138671875 922.796875 500.5z" />
    <glyph glyph-name="cloud-download-alt"
      unicode="&#xE008;"
      horiz-adv-x="1251.25" d="M1117.7181640625001 534.1273437499999C1123.1923828125 553.4826171875 1126.125 573.6199218749999 1126.125 594.34375C1126.125 715.3630859375 1028.1755859375 813.3125 907.15625 813.3125C874.5064453125 813.3125 842.8341796875001 806.27421875 813.3125 792.19765625C751.5320312499999 880.176171875 648.4994140625 938.4375 531.78125 938.4375C347.221875 938.4375 196.0943359375 792.7841796875 188.078515625 609.5933593750001C76.6390625 570.4917968750001 0 464.7220703125 0 344.09375C0 188.4695312499999 125.90703125 62.5625 281.53125 62.5625H1001C1139.2240234375001 62.5625 1251.25 174.39296875 1251.25 312.8125C1251.25 404.701171875 1200.8089843750001 490.33359375 1117.7181640625001 534.1273437499999zM1001 125.125H281.53125C160.5119140625 125.125 62.5625 223.0744140625001 62.5625 344.09375C62.5625 455.1421875 145.066796875 546.8353515624999 252.205078125 561.107421875C250.8365234375001 572.055859375 250.25 583.1998046875001 250.25 594.34375C250.25 749.7724609375 376.3525390625 875.875 531.78125 875.875C649.6724609375 875.875 750.5544921874999 803.537109375 792.5886718749999 700.7C821.1328125 731.3947265625 861.7984375 750.75 907.15625 750.75C993.570703125 750.75 1063.5625 680.7582031249999 1063.5625 594.34375C1063.5625 558.1748046875 1051.2455078125001 524.74296875 1030.5216796875 498.15390625C1120.259765625 484.0773437500001 1188.6875 406.4607421875 1188.6875 312.8125C1188.6875 209.193359375 1104.619140625 125.125 1001 125.125zM750.75 516.140625H625.625V680.3671875C625.625 693.270703125 615.0675781250001 703.828125 602.1640625 703.828125H586.5234375C573.6199218749999 703.828125 563.0625 693.270703125 563.0625 680.3671875V516.140625H437.9375C380.8492187500001 516.140625 353.4781250000001 445.366796875 396.098828125 407.047265625L552.5050781250001 266.281640625C576.35703125 244.77578125 612.3304687500001 244.77578125 636.182421875 266.281640625L792.588671875 407.047265625C835.0138671875001 445.366796875 808.0337890625 516.140625 750.7500000000001 516.140625zM594.34375 312.8125L437.9375 453.578125H750.75L594.34375 312.8125z" />
    <glyph glyph-name="comment"
      unicode="&#xE009;"
      horiz-adv-x="1001" d="M500.5 875.875C741.9521484375 875.875 938.4375 721.423828125 938.4375 531.78125S741.9521484375 187.6875 500.5 187.6875C445.1712890625 187.6875 390.4291015625 196.0943359375 337.8375000000001 212.7125L308.1203125000001 222.0968750000001L282.7042968750001 204.1101562500001C237.7375000000001 172.2423828125001 168.3322265625001 135.0958984375001 82.1132812500001 126.6890625C105.5742187500001 156.2107421875001 140.3746093750001 205.67421875 161.8804687500001 262.7625L175.7615234375001 299.3224609375L148.976953125 327.8666015625C92.4751953125 387.6919921875 62.5625 458.2703124999999 62.5625 531.78125C62.5625 721.423828125 259.0478515625 875.875 500.5 875.875M500.5 938.4375C224.051953125 938.4375 0 756.4197265625 0 531.78125C0 438.71953125 38.9060546875 353.478125 103.4236328125 284.8548828125C74.29296875 207.8248046875 13.685546875 142.5251953124999 12.7080078125 141.7431640625C-0.1955078125 128.0576171875 -3.7146484375 108.1158203125 3.7146484375 90.9111328125C11.1439453125 73.7064453125 27.9576171875 62.5625 46.7263671875 62.5625C166.963671875 62.5625 261.7849609375 112.8080078125 318.677734375 153.0826171875C375.375 135.29140625 436.3734375 125.125 500.5 125.125C776.9480468749999 125.125 1001 307.1427734375001 1001 531.78125S776.9480468749999 938.4375 500.5 938.4375z" />
    <glyph glyph-name="comments"
      unicode="&#xE00A;"
      horiz-adv-x="1126.125" d="M1114.1990234375 138.6150390624999C1113.221484375 139.3970703124999 1070.0142578124999 185.9279296875 1040.1015625 245.9488281249999C1093.8662109375 298.9314453125 1126.125 365.4041015625 1126.125 437.9374999999999C1126.125 594.3437499999999 976.5615234375 723.5744140625 781.640234375 746.6443359374999C720.2507812499999 859.2568359375 575.3794921875 938.4375 406.65625 938.4375C182.0177734375 938.4375 0 798.45390625 0 625.625C0 553.287109375 32.2587890625 486.814453125 86.0234375 433.636328125C56.1107421875 373.6154296875001 13.0990234375 327.0845703125 12.3169921875 326.3025390625001C0 313.2035156250002 -3.519140625 294.0437500000001 3.7146484375 277.4255859375001C10.7529296875 260.8074218750001 27.1755859375 250.0544921875001 45.1623046875 250.0544921875001C149.758984375 250.0544921875001 234.218359375 289.5470703125001 289.9380859375001 325.9115234375002C307.729296875 321.8058593750001 325.9115234375 318.6777343750001 344.6802734375001 316.5271484375001C406.2652343750001 204.1101562500001 550.941015625 124.9294921875001 719.6642578125001 124.9294921875001C760.3298828125 124.9294921875001 799.4314453125 129.6216796875 836.5779296875 138.2240234375001C892.29765625 102.0550781250001 976.5615234375 62.3669921875001 1081.3537109375 62.3669921875001C1099.3404296875 62.3669921875001 1115.567578125 73.1199218750001 1122.8013671875 89.7380859375001C1129.8396484375003 106.3562500000001 1126.5160156250001 125.5160156250001 1114.1990234375003 138.6150390625001zM303.819140625 387.10546875L278.012109375 392.970703125L255.7242187500001 378.5031250000001C216.4271484375 352.8916015625 156.9927734375 323.3699218750001 84.2638671875 314.9630859375001C101.4685546875 337.0554687500001 123.7564453125 368.9232421875002 141.938671875 405.6787109375L162.271484375 446.3443359375L130.0126953125 478.2121093750001C99.1224609375 508.5158203125 62.5625 558.7613281250001 62.5625 625.625C62.5625 763.653515625 217.013671875 875.875 406.65625 875.875S750.75 763.653515625 750.75 625.625S596.298828125 375.375 406.65625 375.375C372.0513671875001 375.375 337.446484375 379.28515625 303.819140625 387.10546875zM870.4007812500001 190.8156250000001L848.1128906250001 205.283203125L822.3058593750002 199.2224609374999C788.6785156250002 191.4021484374999 754.0736328125003 187.4919921874999 719.4687500000001 187.4919921874999C592.1931640625002 187.4919921874999 480.9492187500001 238.1285156249999 421.5148437500002 313.203515625C639.1150390624999 319.459765625 813.3125 456.7062500000001 813.3125 625.625C813.3125 644.1982421875 810.7708984375 662.1849609374999 806.8607421875 679.7806640624999C954.2736328125 651.4320312499999 1063.5625 553.8736328125001 1063.5625 437.9375C1063.5625 371.073828125 1027.0025390624999 320.8283203125001 996.1123046875 290.5246093750001L963.853515625 258.6568359375L983.9908203125 218.1867187500001C1002.3685546875003 181.2357421875001 1024.6564453125 149.3679687500001 1041.6656249999999 127.4710937500001C969.1322265625 135.6824218750001 909.6978515624997 165.3996093750001 870.4007812499999 190.8156250000001z" />
    <glyph glyph-name="contact"
      unicode="&#xE00B;"
      horiz-adv-x="1188.6875" d="M1160.4718125 658.282625C1038.31853125 880.53590625 824.5424687499999 1024.74246875 459.7718125 997.59034375C95.00115625 972.12740625 -47.5162187499999 683.71428125 13.5760625 449.574125C76.35753125 213.74478125 346.0957500000001 159.4405312500001 346.0957500000001 159.4405312500001C554.7729687500001 123.8111875000001 654.87296875 132.2884062500001 654.87296875 132.2884062500001L712.5555937500001 -1.7517499999999L754.9729687500002 157.7200625000001C950.0741250000002 222.1907187500001 1284.31428125 435.9667812500001 1160.4718125000002 658.2200625zM636.22934375 788.913125C605.69884375 788.913125 566.6598437499999 788.913125 566.6598437499999 771.9586875C566.6598437499999 771.9586875 563.2814687499999 624.34246875 566.6598437499999 592.12278125C566.6598437499999 592.12278125 566.6598437499999 592.12278125 566.6598437499999 590.43359375C534.4401562499999 590.43359375 481.82509375 590.43359375 441.09690625 590.43359375C441.09690625 620.96409375 439.40771875 643.017375 441.09690625 653.2150624999999C442.78609375 693.94325 451.2633124999999 788.94440625 439.40771875 792.3227812499999C427.52084375 794.01196875 344.4065625 804.20965625 342.68609375 792.3227812499999C342.68609375 792.3227812499999 337.58725 597.2216249999999 342.68609375 503.90965625C347.7849375 408.9085 335.8980624999999 313.8760625 351.1633125 310.4976875C366.4285625 305.39884375 429.21003125 305.39884375 439.3764375 310.4976875C446.16446875 313.8760625 444.47528125 425.8629375 442.7548125 522.5845625C483.483 522.5845625 534.37759375 522.5845625 568.3177499999999 524.2737500000001C568.3177499999999 490.33359375 568.3177499999999 454.70425 563.2189062499999 437.7498125C556.430875 405.530125 563.2189062499999 327.4834062500001 563.2189062499999 327.4834062500001S563.2189062499999 315.5965312500001 586.961375 315.5965312500001S642.9548125 315.5965312500001 642.9548125 315.5965312500001S659.90925 305.4301250000001 656.530875 346.1270312500001C653.1524999999999 386.8552187500001 651.43203125 563.28146875 656.530875 605.69884375C663.3189062499999 649.80540625 665.0080937500001 771.9586875 665.0080937500001 771.9586875S666.69728125 788.913125 636.16678125 788.913125zM841.5281875000001 620.9640937500001C834.74015625 646.42703125 855.1042500000001 666.7598437500001 821.16409375 666.7598437500001S787.2239375 666.7598437500001 787.2239375 666.7598437500001S768.54903125 665.07065625 766.85984375 649.80540625C765.1706562500001 634.5401562500001 761.761 558.182625 766.85984375 488.6131250000001S765.1706562500001 335.9293437500001 765.1706562500001 335.9293437500001S756.6934375000001 322.35328125 775.3370625 322.35328125C795.70115625 320.66409375 839.80771875 310.46640625 841.49690625 337.61853125C843.18609375 363.08146875 848.2849375000001 595.5011562499999 841.49690625 620.96409375zM833.05096875 710.86640625C858.51390625 731.2305 843.217375 768.54903125 821.16409375 771.9586875C797.4216250000001 777.05753125 785.53475 771.9586875 785.53475 771.9586875S760.0718125000001 748.21621875 773.6478750000001 726.1629375S807.5880312500001 690.53359375 833.0196875 710.8976875000001z" />
    <glyph glyph-name="credit-card"
      unicode="&#xE00C;"
      horiz-adv-x="1126.125" d="M1032.28125 938.4375H93.84375C42.0341796875 938.4375 0 896.4033203125 0 844.59375V156.40625C0 104.5966796875 42.0341796875 62.5625 93.84375 62.5625H1032.28125C1084.0908203125 62.5625 1126.125 104.5966796875 1126.125 156.40625V844.59375C1126.125 896.4033203125 1084.0908203125 938.4375 1032.28125 938.4375zM93.84375 875.875H1032.28125C1049.4859374999999 875.875 1063.5625 861.7984375 1063.5625 844.59375V750.75H62.5625V844.59375C62.5625 861.7984375 76.6390625 875.875 93.84375 875.875zM1032.28125 125.125H93.84375C76.6390625 125.125 62.5625 139.2015625 62.5625 156.40625V563.0625H1063.5625V156.40625C1063.5625 139.2015625 1049.4859374999999 125.125 1032.28125 125.125zM375.375 289.3515625V273.7109375C375.375 260.807421875 364.817578125 250.25 351.9140625 250.25H211.1484375C198.244921875 250.25 187.6875 260.807421875 187.6875 273.7109375V289.3515625C187.6875 302.2550781250001 198.244921875 312.8125 211.1484375 312.8125H351.9140625C364.817578125 312.8125 375.375 302.2550781250001 375.375 289.3515625zM750.75 289.3515625V273.7109375C750.75 260.807421875 740.1925781250001 250.25 727.2890625 250.25H461.3984375C448.494921875 250.25 437.9375 260.807421875 437.9375 273.7109375V289.3515625C437.9375 302.2550781250001 448.494921875 312.8125 461.3984375 312.8125H727.2890625C740.1925781250001 312.8125 750.75 302.2550781250001 750.75 289.3515625z" />
    <glyph glyph-name="dot-circle"
      unicode="&#xE00D;"
      horiz-adv-x="1001" d="M500.5 985.359375C232.718814453125 985.359375 15.640625 768.281185546875 15.640625 500.5S232.718814453125 15.640625 500.5 15.640625S985.359375 232.718814453125 985.359375 500.5S768.281185546875 985.359375 500.5 985.359375zM500.5 78.203125C268.504564453125 78.203125 78.203125 265.998154296875 78.203125 500.5C78.203125 732.495435546875 265.998154296875 922.796875 500.5 922.796875C732.495435546875 922.796875 922.796875 735.001845703125 922.796875 500.5C922.796875 268.504564453125 735.001845703125 78.203125 500.5 78.203125zM500.5 656.90625C414.118783203125 656.90625 344.09375 586.8812167968749 344.09375 500.5S414.118783203125 344.09375 500.5 344.09375S656.90625 414.118783203125 656.90625 500.5S586.881216796875 656.90625 500.5 656.90625zM500.5 406.65625C448.7549472656251 406.65625 406.65625 448.754947265625 406.65625 500.5S448.7549472656251 594.34375 500.5 594.34375S594.34375 552.2450527343749 594.34375 500.5S552.245052734375 406.65625 500.5 406.65625z" />
    <glyph glyph-name="edit"
      unicode="&#xE00E;"
      horiz-adv-x="1126.125" d="M816.831640625 384.1728515625L855.933203125 423.2744140625C863.3625000000001 430.7037109375 875.875 425.4250000000001 875.875 415.0630859375V93.84375C875.875 42.0341796875 833.8408203125 0 782.03125 0H93.84375C42.0341796875 0 0 42.0341796875 0 93.84375V782.03125C0 833.8408203125 42.0341796875 875.875 93.84375 875.875H665.3130859375C675.6750000000001 875.875 680.9537109375 863.1669921875 673.5244140625 855.933203125L634.4228515625 816.831640625C632.2722656249999 814.6810546875 629.144140625 813.3125 626.2115234375 813.3125H93.84375C76.6390625 813.3125 62.5625 799.2359375 62.5625 782.03125V93.84375C62.5625 76.6390625 76.6390625 62.5625 93.84375 62.5625H782.03125C799.2359375 62.5625 813.3125 76.6390625 813.3125 93.84375V375.9615234375C813.3125 379.0896484375001 814.4855468750001 382.0222656250001 816.831640625 384.1728515625zM1102.0775390625001 757.9837890624999L491.115625 147.021875L295.8033203125 125.3205078125C269.6052734375 122.387890625 247.512890625 144.4802734374999 250.4455078125 170.6783203124999L272.146875 365.9906249999999L883.1087890625 976.9525390625C915.1720703125 1009.0158203125 967.1771484375 1009.0158203125 999.2404296875 976.9525390625L1102.0775390625 874.1154296875C1134.1408203124997 842.0521484374999 1134.1408203124997 790.0470703125 1102.0775390625 757.9837890624999zM919.0822265625 663.3580078125L788.6785156249999 793.76171875L331.9722656250001 337.2509765625L315.7451171875 190.4246093749999L462.571484375 206.6517578125L919.0822265625 663.3580078125zM1057.8927734375 829.9306640625L955.0556640625 932.7677734375C947.6263671875 940.1970703125 935.1138671875 940.5880859375 927.4890625 932.7677734375L832.86328125 838.1419921875L963.2669921875 707.73828125L1057.8927734375 802.3640625C1065.517578125 809.793359375 1065.517578125 822.305859375 1057.8927734375 829.9306640625z" />
    <glyph glyph-name="envelope"
      unicode="&#xE00F;"
      horiz-adv-x="1001" d="M907.15625 875.875H93.84375C42.0341796875 875.875 0 833.8408203125 0 782.03125V218.96875C0 167.1591796875 42.0341796875 125.125 93.84375 125.125H907.15625C958.9658203125 125.125 1001 167.1591796875 1001 218.96875V782.03125C1001 833.8408203125 958.9658203125 875.875 907.15625 875.875zM93.84375 813.3125H907.15625C924.3609375 813.3125 938.4375 799.2359375 938.4375 782.03125V701.091015625C895.6212890625001 664.9220703125 834.42734375 615.067578125 644.0027343749999 463.9400390625C610.9619140625 437.7419921875001 545.8578125 374.5929687500001 500.4999999999999 375.375C455.1421875 374.5929687500001 389.842578125 437.7419921875 356.997265625 463.9400390625C166.57265625 615.067578125 105.3787109375 664.9220703125 62.5625 701.091015625V782.03125C62.5625 799.2359375 76.6390625 813.3125 93.84375 813.3125zM907.15625 187.6875H93.84375C76.6390625 187.6875 62.5625 201.7640625 62.5625 218.96875V619.759765625C107.13828125 583.1998046875001 177.52109375 526.698046875 318.0912109375 415.0630859375C358.1703125 382.9998046875001 428.944140625 312.421484375 500.5 312.8125C571.6648437499999 312.2259765625 641.8521484375 382.2177734375 682.9087890625 415.0630859375C823.4789062500001 526.698046875 893.8617187500001 583.1998046875001 938.4375 619.759765625V218.96875C938.4375 201.7640625 924.3609375 187.6875 907.15625 187.6875z" />
    <glyph glyph-name="expand-alt"
      unicode="&#xE010;"
      horiz-adv-x="875.875" d="M388.726228515625 462.346650390625L399.7841503906251 451.2887285156251C408.9456464843751 442.1272324218751 408.9456464843751 427.2725488281251 399.7841503906251 418.10909765625L106.800052734375 125.125H226.7890625C239.745365234375 125.125 250.25 114.6203652343751 250.25 101.6640625V86.0234375C250.25 73.0671347656249 239.745365234375 62.5625 226.7890625 62.5625H23.4609375C10.504634765625 62.5625 0 73.0671347656249 0 86.0234375V289.3515625C0 302.3078652343751 10.504634765625 312.8125 23.4609375 312.8125H39.1015625C52.057865234375 312.8125 62.5625 302.3078652343751 62.5625 289.3515625V169.3625527343751L355.54659765625 462.346650390625C364.7100488281251 471.5101015625 379.564732421875 471.5101015625 388.726228515625 462.346650390625zM852.4140625 938.4375H649.0859375C636.1296347656249 938.4375 625.625 927.932865234375 625.625 914.9765625V899.3359375C625.625 886.379634765625 636.1296347656249 875.875 649.0859375 875.875H769.0749472656249L476.090849609375 582.89090234375C466.9293535156249 573.72940625 466.9293535156249 558.87472265625 476.090849609375 549.711271484375L487.148771484375 538.653349609375C496.310267578125 529.4918535156249 511.164951171875 529.4918535156249 520.32840234375 538.653349609375L813.3125 831.637447265625V711.6484375C813.3125 698.692134765625 823.8171347656249 688.1875 836.7734375 688.1875H852.4140625C865.3703652343751 688.1875 875.875 698.692134765625 875.875 711.6484375V914.9765625C875.875 927.932865234375 865.3703652343751 938.4375 852.4140625 938.4375z" />
    <glyph glyph-name="external-link-alt"
      unicode="&#xE011;"
      horiz-adv-x="1126.125" d="M1063.5625 1001H1063.453015625L875.4390175781249 1000.673501953125C819.8326855468748 1000.577703125 792.0353847656249 933.14705859375 831.3089941406248 893.87344921875L900.2685097656248 824.91393359375L319.684599609375 244.3261132812501C310.523103515625 235.1646171875001 310.523103515625 220.3099335937501 319.684599609375 211.1484375L336.271482421875 194.559599609375C345.4349335937501 185.3981035156251 360.2896171875 185.3981035156251 369.45111328125 194.559599609375L950.03893359375 775.147419921875L1018.99844921875 706.187904296875C1058.144978515625 667.041375 1125.702703125 694.496537109375 1125.798501953125 750.317927734375L1126.125 938.329970703125C1126.18365234375 972.938763671875 1098.1185058593749 1001 1063.5625 1001zM1063.236001953125 750.423501953125L875.548501953125 938.111001953125L1063.5625 938.4375L1063.236001953125 750.423501953125zM875.875 555.865857421875V93.84375C875.875 42.01462890625 833.86037109375 0 782.03125 0H93.84375C42.01462890625 0 0 42.01462890625 0 93.84375V782.03125C0 833.86037109375 42.01462890625 875.875 93.84375 875.875H727.242140625C733.465154296875 875.875 739.432052734375 873.4037812500001 743.830978515625 869.002900390625L759.471603515625 853.362275390625C774.251994140625 838.581884765625 763.784505859375 813.3125 742.882765625 813.3125H93.84375C76.566724609375 813.3125 62.5625 799.308275390625 62.5625 782.03125V93.84375C62.5625 76.566724609375 76.566724609375 62.5625 93.84375 62.5625H782.03125C799.308275390625 62.5625 813.3125 76.566724609375 813.3125 93.84375V540.2271875C813.3125 546.450201171875 815.78371875 552.417099609375 820.184599609375 556.816025390625L835.825224609375 572.456650390625C850.60366015625 587.2350859375 875.875 576.76759765625 875.875 555.865857421875z" />
    <glyph glyph-name="file-alt"
      unicode="&#xE012;"
      horiz-adv-x="750.75" d="M723.1833984374999 809.5978515625L559.15234375 973.62890625C541.556640625 991.224609375 517.7046875 1001.1955078125 492.8751953125 1001.1955078125H93.84375C42.0341796875 1001 0 958.9658203125 0 907.15625V93.84375C0 42.0341796875 42.0341796875 0 93.84375 0H656.90625C708.7158203125 0 750.75 42.0341796875 750.75 93.84375V743.1251953125C750.75 767.9546875 740.7791015624999 792.0021484375 723.1833984374999 809.5978515625zM678.9986328124999 765.217578125C683.1042968749999 761.1119140625 685.8414062499999 756.22421875 687.2099609374999 750.75H500.5V937.4599609375C505.97421875 936.09140625 510.8619140625 933.354296875 514.9675781249999 929.2486328125L678.9986328124999 765.217578125zM656.90625 62.5625H93.84375C76.6390625 62.5625 62.5625 76.6390625 62.5625 93.84375V907.15625C62.5625 924.3609375 76.6390625 938.4375 93.84375 938.4375H437.9375V735.109375C437.9375 709.1068359374999 458.8568359375 688.1875 484.859375 688.1875H688.1875V93.84375C688.1875 76.6390625 674.1109375 62.5625 656.90625 62.5625zM563.0625 539.6015625V523.9609375C563.0625 511.057421875 552.5050781250001 500.5 539.6015625 500.5H211.1484375C198.244921875 500.5 187.6875 511.057421875 187.6875 523.9609375V539.6015625C187.6875 552.505078125 198.244921875 563.0625 211.1484375 563.0625H539.6015625C552.5050781250001 563.0625 563.0625 552.505078125 563.0625 539.6015625zM563.0625 414.4765625V398.8359375C563.0625 385.932421875 552.5050781250001 375.375 539.6015625 375.375H211.1484375C198.244921875 375.375 187.6875 385.932421875 187.6875 398.8359375V414.4765625C187.6875 427.3800781250001 198.244921875 437.9375 211.1484375 437.9375H539.6015625C552.5050781250001 437.9375 563.0625 427.3800781250001 563.0625 414.4765625zM563.0625 289.3515625V273.7109375C563.0625 260.807421875 552.5050781250001 250.25 539.6015625 250.25H211.1484375C198.244921875 250.25 187.6875 260.807421875 187.6875 273.7109375V289.3515625C187.6875 302.2550781250001 198.244921875 312.8125 211.1484375 312.8125H539.6015625C552.5050781250001 312.8125 563.0625 302.2550781250001 563.0625 289.3515625z" />
    <glyph glyph-name="file-archive"
      unicode="&#xE013;"
      horiz-adv-x="750.75" d="M250.25 813.3125V750.75H312.8125V813.3125zM379.0896484375 481.7312499999999C376.9390625000001 492.6796875 367.3591796875 500.5 356.0197265625 500.5H312.8125V563.0625H250.25V500.5L212.321484375 310.46640625C199.6134765625 246.9263671875 248.0994140625 187.6875 312.8125 187.6875S426.0115234375 246.9263671875 413.303515625 310.46640625zM313.3990234375001 238.3240234375C278.403125 238.3240234375 250.0544921875 261.98046875 250.0544921875 291.1111328125S278.403125 343.8982421875 313.3990234375001 343.8982421875S376.7435546875 320.2417968749999 376.7435546875 291.1111328125S348.394921875 238.3240234375 313.3990234375001 238.3240234375zM250.25 688.1875V625.625H312.8125V688.1875zM375.375 875.875H312.8125V813.3125H375.375zM723.1833984374999 809.5978515625L559.15234375 973.62890625C541.556640625 991.224609375 517.7046875 1001.1955078125 492.8751953125 1001.1955078125H93.84375C42.0341796875 1001 0 958.9658203125 0 907.15625V93.84375C0 42.0341796875 42.0341796875 0 93.84375 0H656.90625C708.7158203125 0 750.75 42.0341796875 750.75 93.84375V743.1251953125C750.75 767.9546875 740.7791015624999 792.0021484375 723.1833984374999 809.5978515625zM500.5 937.4599609375C505.97421875 936.09140625 511.0574218749999 933.354296875 514.9675781249999 929.2486328125L678.9986328124999 765.217578125C682.9087890624999 761.307421875 685.8414062499999 756.22421875 687.2099609374999 750.75H500.5zM688.1875 93.84375C688.1875 76.6390625 674.1109375 62.5625 656.90625 62.5625H93.84375C76.6390625 62.5625 62.5625 76.6390625 62.5625 93.84375V907.15625C62.5625 924.3609375 76.6390625 938.4375 93.84375 938.4375H249.6634765625V875.875H312.2259765625V938.4375H437.9375V735.109375C437.9375 709.1068359374999 458.8568359375 688.1875 484.859375 688.1875H688.1875zM375.375 625.625H312.8125V563.0625H375.375zM375.375 750.75H312.8125V688.1875H375.375z" />
    <glyph glyph-name="filter"
      unicode="&#xE014;"
      horiz-adv-x="1216.4050632911392" d="M58.2860759493671 739.9797468354429H187.5291139240506C212.8708860759493 656.3518987341772 288.8962025316456 595.5316455696202 380.126582278481 595.5316455696202S547.3822784810127 656.3518987341772 572.7240506329115 739.9797468354429H1158.1189873417723C1191.0632911392406 739.9797468354429 1216.4050632911392 765.3215189873417 1216.4050632911392 798.2658227848101S1191.0632911392406 856.5518987341773 1158.1189873417723 856.5518987341773H572.7240506329115C547.3822784810127 940.179746835443 471.3569620253165 1001 380.1265822784811 1001S210.3367088607595 940.179746835443 184.9949367088608 856.5518987341773H58.2860759493671C25.3417721518988 856.5518987341773 0 831.2101265822785 0 798.2658227848101S25.3417721518988 739.9797468354429 58.2860759493671 739.9797468354429zM380.126582278481 884.4278481012658C428.2759493670886 884.4278481012658 466.2886075949367 846.4151898734177 466.2886075949367 798.2658227848101S428.2759493670886 712.1037974683544 380.126582278481 712.1037974683544S291.4303797468354 747.5822784810126 291.4303797468354 798.2658227848101S331.9772151898734 884.4278481012658 380.126582278481 884.4278481012658zM1158.1189873417723 258.4860759493671H1028.8759493670887C1003.5341772151899 342.113924050633 927.5088607594938 402.9341772151899 836.2784810126582 402.9341772151899S669.0227848101265 342.113924050633 643.6810126582278 258.4860759493671H58.286075949367C25.3417721518987 258.4860759493671 -1e-13 233.1443037974683 -1e-13 200.1999999999999S25.3417721518987 141.913924050633 58.286075949367 141.913924050633H643.6810126582278C669.0227848101265 58.2860759493672 745.0481012658228 -2.5341772151899 836.2784810126582 -2.5341772151899S1003.5341772151899 58.2860759493671 1028.8759493670887 141.913924050633H1158.1189873417723C1191.0632911392406 141.913924050633 1216.4050632911392 167.2556962025317 1216.4050632911392 200.2000000000001S1191.0632911392406 258.4860759493672 1158.1189873417723 258.4860759493672zM836.2784810126582 116.5721518987342C788.1291139240507 116.5721518987342 750.1164556962026 154.5848101265823 750.1164556962026 202.7341772151899S788.1291139240507 288.8962025316455 836.2784810126582 288.8962025316455S922.4405063291138 250.8835443037974 922.4405063291138 202.7341772151899S884.4278481012658 116.5721518987342 836.2784810126582 116.5721518987342z" />
    <glyph glyph-name="folder-open"
      unicode="&#xE015;"
      horiz-adv-x="1126.125" d="M1032.1834960937501 563.0625H938.4375V656.90625C938.4375 708.73537109375 896.42287109375 750.75 844.59375 750.75H531.78125L406.65625 875.875H93.84375C42.01462890625 875.875 0 833.86037109375 0 782.03125V218.96875C0 167.13962890625 42.01462890625 125.125 93.84375 125.125H846.6602675781251C901.535400390625 125.125 952.498421875 153.929166015625 980.776671875 201.0602343750001L1112.652556640625 420.936140625C1150.05515625 483.2718515624999 1105.1763378906248 563.0625 1032.1834960937501 563.0625zM93.84375 813.3125H380.741689453125L505.866689453125 688.1875H844.59375C861.870775390625 688.1875 875.875 674.183275390625 875.875 656.90625V563.0625H334.664408203125C279.789275390625 563.0625 228.82625390625 534.258333984375 200.54800390625 487.1272656249999L62.5625 257.15142578125V782.03125C62.5625 799.308275390625 76.566724609375 813.3125 93.84375 813.3125zM1059.056044921875 453.1245468750001L927.129328125 233.248640625A93.837884765625 93.837884765625 0 0 0 846.6602675781251 187.6875H87.632466796875L247.982109375 454.9388593750001A93.84375 93.84375 0 0 0 328.453125 500.5H1032.232373046875C1056.5476796875 500.5 1071.56658984375 473.9735000000001 1059.0560449218751 453.1245468750001z" />
    <glyph glyph-name="folder"
      unicode="&#xE016;"
      horiz-adv-x="1001" d="M380.7319140625001 813.3125L487.53783203125 706.50658203125C499.26830078125 694.77611328125 515.18263671875 688.1875 531.78125 688.1875H907.15625C924.439140625 688.1875 938.4375 674.1891406249999 938.4375 656.90625V218.96875C938.4375 201.6858593750001 924.439140625 187.6875 907.15625 187.6875H93.84375C76.560859375 187.6875 62.5625 201.6858593750001 62.5625 218.96875V782.03125C62.5625 799.3141406249999 76.560859375 813.3125 93.84375 813.3125H380.7319140625001M93.84375 875.875C42.01462890625 875.875 0 833.86037109375 0 782.03125V218.96875C0 167.13962890625 42.01462890625 125.125 93.84375 125.125H907.15625C958.98537109375 125.125 1001 167.13962890625 1001 218.96875V656.90625C1001 708.73537109375 958.98537109375 750.75 907.15625 750.75H531.78125L424.97533203125 857.55591796875C413.24486328125 869.28638671875 397.33052734375 875.875 380.7319140625001 875.875H93.84375z" />
    <glyph glyph-name="frown"
      unicode="&#xE017;"
      horiz-adv-x="969.71875" d="M484.859375 985.359375C217.013671875 985.359375 0 768.345703125 0 500.5S217.013671875 15.640625 484.859375 15.640625S969.71875 232.654296875 969.71875 500.5S752.705078125 985.359375 484.859375 985.359375zM484.859375 78.203125C252.0095703125 78.203125 62.5625 267.6501953125 62.5625 500.5S252.0095703125 922.796875 484.859375 922.796875S907.15625 733.3498046875 907.15625 500.5S717.7091796875001 78.203125 484.859375 78.203125zM484.859375 375.375C398.05390625 375.375 316.3316406250001 337.05546875 260.41640625 270.191796875C249.2724609375 256.897265625 251.03203125 237.1509765625 264.3265625 226.2025390625C277.62109375 215.05859375 297.3673828125 216.8181640624999 308.3158203125 230.1126953125C352.1095703125 282.5087890625 416.431640625 312.6169921875 484.6638671874999 312.6169921875S617.2181640625 282.5087890625 661.0119140625 230.1126953125C671.3738281249999 217.6001953125 691.1201171874999 214.4720703125 705.001171875 226.2025390625C718.2957031249999 237.346484375 720.0552734374999 257.0927734375 708.911328125 270.191796875C653.387109375 337.05546875 571.6648437499999 375.375 484.859375 375.375zM328.453125 531.78125C363.0580078125 531.78125 391.015625 559.7388671875001 391.015625 594.34375S363.0580078125 656.90625 328.453125 656.90625S265.890625 628.9486328124999 265.890625 594.34375S293.8482421875001 531.78125 328.453125 531.78125zM641.265625 531.78125C675.8705078125 531.78125 703.828125 559.7388671875001 703.828125 594.34375S675.8705078125 656.90625 641.265625 656.90625S578.703125 628.9486328124999 578.703125 594.34375S606.6607421875 531.78125 641.265625 531.78125z" />
    <glyph glyph-name="gift"
      unicode="&#xE018;"
      horiz-adv-x="1001" d="M907.15625 719.46875H830.3216796875C848.894921875 745.666796875 860.234375 777.9255859375 860.234375 813.3125C860.234375 899.5314453125 794.9347656250001 969.71875 714.5810546875 969.71875C631.88125 969.71875 583.9818359375 920.059765625 500.5 782.422265625C417.0181640625001 920.059765625 369.1187500000001 969.71875 286.4189453125 969.71875C206.065234375 969.71875 140.765625 899.5314453125 140.765625 813.3125C140.765625 777.9255859375 152.105078125 745.666796875 170.6783203125 719.46875H93.84375C42.0341796875 719.46875 0 677.4345703125 0 625.625V437.9375C0 420.7328125 14.0765625 406.65625 31.28125 406.65625H62.5625V125.125C62.5625 73.3154296875 104.5966796875 31.28125 156.40625 31.28125H844.59375C896.4033203125 31.28125 938.4375 73.3154296875 938.4375 125.125V406.65625H969.71875C986.9234375 406.65625 1001 420.7328125 1001 437.9375V625.625C1001 677.4345703125 958.9658203125 719.46875 907.15625 719.46875zM539.992578125 726.50703125C636.7689453125 889.3650390625 669.027734375 907.15625 714.5810546875 907.15625C760.3298828124999 907.15625 797.671875 865.1220703125 797.671875 813.3125S760.3298828124999 719.46875 714.5810546875 719.46875H535.69140625L539.992578125 726.50703125zM286.4189453125 907.15625C332.1677734375 907.15625 364.2310546875001 889.3650390625 461.007421875 726.50703125L465.1130859375 719.46875H286.2234375C240.474609375 719.46875 203.1326171875 761.5029296875 203.1326171875 813.3125C203.328125 865.1220703125 240.6701171875 907.15625 286.4189453125 907.15625zM375.375 93.84375H156.40625C139.2015625 93.84375 125.125 107.9203125 125.125 125.125V406.65625H375.375V93.84375zM375.375 469.21875H62.5625V625.625C62.5625 642.8296875000001 76.6390625 656.90625 93.84375 656.90625H375.375V469.21875zM563.0625 93.84375H437.9375V656.90625H563.0625V93.84375zM875.875 125.125C875.875 107.9203125 861.7984375 93.84375 844.59375 93.84375H625.625V406.65625H875.875V125.125zM938.4375 469.21875H625.625V656.90625H907.15625C924.3609375 656.90625 938.4375 642.8296875000001 938.4375 625.625V469.21875z" />
    <glyph glyph-name="grid"
      unicode="&#xE019;"
      horiz-adv-x="1188.6875" d="M0 1001H546.0142187499999V546.01421875H0V1001zM0 454.9857812500001H546.0142187499999V0H0V454.9857812500001zM637.011375 1001H1183.02559375V546.01421875H637.0113750000002V1001zM637.011375 454.9857812500001H1183.02559375V0H637.0113750000002V454.9857812500001z" />
    <glyph glyph-name="grip-horizontal"
      unicode="&#xE01A;"
      horiz-adv-x="875.875" d="M828.953125 813.3125H672.546875C646.7007421874999 813.3125 625.625 792.25630859375 625.625 766.390625V609.984375C625.625 584.11869140625 646.7007421874999 563.0625 672.546875 563.0625H828.953125C854.7992578125001 563.0625 875.875 584.11869140625 875.875 609.984375V766.390625C875.875 792.25630859375 854.7992578125001 813.3125 828.953125 813.3125zM813.3125 625.625H688.1875V750.75H813.3125V625.625zM516.140625 813.3125H359.734375C333.8882421875 813.3125 312.8125 792.25630859375 312.8125 766.390625V609.984375C312.8125 584.11869140625 333.8882421875 563.0625 359.734375 563.0625H516.140625C541.9867578125001 563.0625 563.0625 584.11869140625 563.0625 609.984375V766.390625C563.0625 792.25630859375 541.9867578125001 813.3125 516.140625 813.3125zM500.5 625.625H375.375V750.75H500.5V625.625zM203.328125 813.3125H46.921875C21.0757421875 813.3125 0 792.25630859375 0 766.390625V609.984375C0 584.11869140625 21.0757421875 563.0625 46.921875 563.0625H203.328125C229.1742578125 563.0625 250.25 584.11869140625 250.25 609.984375V766.390625C250.25 792.25630859375 229.1742578125 813.3125 203.328125 813.3125zM187.6875 625.625H62.5625V750.75H187.6875V625.625zM828.953125 437.9375H672.546875C646.7007421874999 437.9375 625.625 416.8813085937501 625.625 391.015625V234.609375C625.625 208.7436914062499 646.7007421874999 187.6875 672.546875 187.6875H828.953125C854.7992578125001 187.6875 875.875 208.7436914062499 875.875 234.609375V391.015625C875.875 416.8813085937501 854.7992578125001 437.9375 828.953125 437.9375zM813.3125 250.25H688.1875V375.375H813.3125V250.25zM516.140625 437.9375H359.734375C333.8882421875 437.9375 312.8125 416.8813085937501 312.8125 391.015625V234.609375C312.8125 208.7436914062499 333.8882421875 187.6875 359.734375 187.6875H516.140625C541.9867578125001 187.6875 563.0625 208.7436914062499 563.0625 234.609375V391.015625C563.0625 416.8813085937501 541.9867578125001 437.9375 516.140625 437.9375zM500.5 250.25H375.375V375.375H500.5V250.25zM203.328125 437.9375H46.921875C21.0757421875 437.9375 0 416.8813085937501 0 391.015625V234.609375C0 208.7436914062499 21.0757421875 187.6875 46.921875 187.6875H203.328125C229.1742578125 187.6875 250.25 208.7436914062499 250.25 234.609375V391.015625C250.25 416.8813085937501 229.1742578125 437.9375 203.328125 437.9375zM187.6875 250.25H62.5625V375.375H187.6875V250.25z" />
    <glyph glyph-name="heart-fill"
      unicode="&#xE01B;"
      horiz-adv-x="1001" d="M903.8326171875 878.612109375C796.6943359375 969.9142578125 637.35546875 953.4916015625 539.0150390625 852.023046875L500.5 812.3349609375L461.9849609375 852.023046875C363.8400390625 953.4916015625 204.3056640625 969.9142578125 97.1673828125 878.612109375C-25.6115234375 773.819921875 -32.06328125 585.74140625 77.812109375 472.1513671875L456.1197265625 81.5267578125C480.558203125 56.30625 520.2462890625001 56.30625 544.6847656250001 81.5267578125L922.9923828125 472.1513671875C1033.06328125 585.74140625 1026.6115234375 773.8199218750001 903.8326171875 878.612109375z" />
    <glyph glyph-name="heart"
      unicode="&#xE01C;"
      horiz-adv-x="1001" d="M903.8326171875 878.4166015625C797.280859375 969.1322265625 637.9419921875 954.078125 539.0150390625001 852.023046875L500.5 812.139453125L461.9849609375 851.8275390625C382.2177734375 934.3318359375 221.31484375 983.9908203125 97.1673828125 878.4166015625C-25.6115234375 773.6244140624999 -32.06328125 585.5458984375 77.812109375 472.1513671875L456.1197265625 81.5267578125C468.2412109375 69.0142578125 484.2728515625 62.5625 500.3044921875 62.5625C516.3361328125001 62.5625 532.3677734375 68.81875 544.4892578125 81.5267578125L922.796875 472.1513671875C1033.06328125 585.5458984375 1026.6115234375 773.6244140624999 903.8326171875 878.4166015625zM878.22109375 515.5541015624999L501.2820312499999 124.9294921874999L122.77890625 515.5541015624999C47.70390625 592.9751953125 32.06328125 740.58359375 137.8330078125 830.7126953124999C244.9712890625 922.2103515625 370.8783203125 855.933203125 417.0181640625001 808.2292968749999L500.5 722.0103515625L583.9818359375 808.2292968749999C629.3396484374999 855.1511718749999 756.4197265624999 921.623828125 863.1669921875 830.7126953124999C968.7412109375 740.7791015624999 953.29609375 593.1707031249999 878.22109375 515.5541015624999z" />
    <glyph glyph-name="history"
      unicode="&#xE01D;"
      horiz-adv-x="1001" d="M39.1015625 954.078125H58.65234375C71.608646484375 954.078125 82.11328125 943.573490234375 82.11328125 930.6171875V745.617919921875C166.5648359375 889.468658203125 323.055154296875 985.916572265625 502.050376953125 985.357419921875C768.6976171875 984.5226015625 985.775806640625 766.373029296875 985.359375 499.7257890625C984.94098828125 232.3004277343751 768.0211601562501 15.640625 500.5 15.640625C375.5196757812501 15.640625 261.58554296875 62.9280996093751 175.60902734375 140.5857578125C165.612712890625 149.61430859375 165.1415390625 165.143494140625 174.6666796875 174.668634765625L188.487126953125 188.4890820312501C197.29084375 197.292798828125 211.45733984375 197.7053203125 220.710724609375 189.3766875000001C294.79058984375 122.70461328125 392.843623046875 82.11328125 500.5 82.11328125C730.69871875 82.11328125 918.88671875 268.492833984375 918.88671875 500.5C918.88671875 730.69871875 732.507166015625 918.88671875 500.5 918.88671875C338.49831640625 918.88671875 197.977076171875 826.847505859375 128.470138671875 692.09765625H320.6328125C333.589115234375 692.09765625 344.09375 681.593021484375 344.09375 668.63671875V649.0859375C344.09375 636.129634765625 333.589115234375 625.625 320.6328125 625.625H39.1015625C26.145259765625 625.625 15.640625 636.129634765625 15.640625 649.0859375V930.6171875C15.640625 943.573490234375 26.145259765625 954.078125 39.1015625 954.078125zM667.946576171875 337.7690722656251L677.147173828125 350.418427734375C684.7680683593751 360.8976464843751 682.4513007812501 375.5705078125001 671.97208203125 383.19140234375L531.78125 485.146771484375V774.2109375C531.78125 787.167240234375 521.2766152343751 797.671875 508.3203125 797.671875H492.6796875C479.723384765625 797.671875 469.21875 787.167240234375 469.21875 774.2109375V453.290728515625L635.1736015625 332.595935546875C645.6528203125 324.9730859375001 660.325681640625 327.2898535156251 667.946576171875 337.7690722656252z" />
    <glyph glyph-name="home"
      unicode="&#xE01E;"
      horiz-adv-x="1126.125" d="M1057.697265625 552.9742968749999L938.4375 650.3958398437501V801.71888671875A11.73046875 11.73046875 0 0 1 926.70703125 813.44935546875H887.60546875A11.73046875 11.73046875 0 0 1 875.875 801.71888671875V701.3647265625L602.53552734375 924.4782421875A62.8753125 62.8753125 0 0 1 523.58947265625 924.4782421875L68.427734375 552.9742968749999A15.640625 15.640625 0 0 1 66.15984375 530.99921875L85.9061328125 506.73669921875A15.640625 15.640625 0 0 1 107.8030078125 504.41015625L187.6875 569.6706640625V94.5866796875A31.28125 31.28125 0 0 1 218.96875 63.3054296875H469.21875A31.28125 31.28125 0 0 1 500.5 94.5866796875V344.8366796875L625.625 344.2501562499999V93.84375A31.28125 31.28125 0 0 1 656.90625 62.5625L907.15625 63.2076757812499A31.28125 31.28125 0 0 1 938.4375 94.4889257812499V569.6706640625L1018.3219921875 504.41015625A15.640625 15.640625 0 0 1 1040.31662109375 506.678046875L1060.0629101562502 530.94056640625A15.640625 15.640625 0 0 1 1057.697265625 552.9742968749999zM875.65994140625 125.61376953125H875.85544921875L688.16794921875 125.02724609375V375.609609375A31.37900390625 31.37900390625 0 0 1 656.9844531250001 406.890859375L469.296953125 407.4187304687501A31.28125 31.28125 0 0 1 437.9179492187501 376.1374804687501V125.61376953125H250.25V620.71775390625L563.0625 875.9923046875L875.875 620.71775390625z" />
    <glyph glyph-name="info-circle"
      unicode="&#xE01F;"
      horiz-adv-x="1001" d="M500.5 922.796875C732.413322265625 922.796875 922.796875 734.9627441406251 922.796875 500.5C922.796875 267.2767753906251 733.91677734375 78.203125 500.5 78.203125C267.3686640625 78.203125 78.203125 266.9893789062501 78.203125 500.5C78.203125 733.551177734375 267.0675820312501 922.796875 500.5 922.796875M500.5 985.359375C232.738365234375 985.359375 15.640625 768.183431640625 15.640625 500.5C15.640625 232.660162109375 232.738365234375 15.640625 500.5 15.640625S985.359375 232.660162109375 985.359375 500.5C985.359375 768.183431640625 768.261634765625 985.359375 500.5 985.359375zM430.1171875 312.8125H453.578125V547.421875H430.1171875C417.160884765625 547.421875 406.65625 557.926509765625 406.65625 570.8828125V586.5234375C406.65625 599.479740234375 417.160884765625 609.984375 430.1171875 609.984375H523.9609375C536.9172402343751 609.984375 547.421875 599.479740234375 547.421875 586.5234375V312.8125H570.8828125C583.8391152343751 312.8125 594.34375 302.3078652343751 594.34375 289.3515625V273.7109375C594.34375 260.754634765625 583.8391152343751 250.25 570.8828125 250.25H430.1171875C417.160884765625 250.25 406.65625 260.754634765625 406.65625 273.7109375V289.3515625C406.65625 302.3078652343751 417.160884765625 312.8125 430.1171875 312.8125zM500.5 782.03125C465.947904296875 782.03125 437.9375 754.020845703125 437.9375 719.46875S465.947904296875 656.90625 500.5 656.90625S563.0625 684.916654296875 563.0625 719.46875S535.052095703125 782.03125 500.5 782.03125z" />
    <glyph glyph-name="instagram"
      unicode="&#xE020;"
      horiz-adv-x="875.875" d="M438.1330078125 725.333984375C313.7900390625 725.333984375 213.49453125 625.0384765624999 213.49453125 500.6955078125S313.7900390625 276.05703125 438.1330078125 276.05703125S662.771484375 376.3525390625 662.771484375 500.6955078125S562.4759765625 725.333984375 438.1330078125 725.333984375zM438.1330078125 354.651171875C357.779296875 354.651171875 292.088671875 420.1462890625 292.088671875 500.6955078125S357.5837890625 646.7398437499999 438.1330078125 646.7398437499999S584.1773437499999 581.2447265624999 584.1773437499999 500.6955078125S518.4867187499999 354.651171875 438.1330078125 354.651171875zM724.3564453125 734.5228515624999C724.3564453125 705.3921875 700.8955078125 682.1267578124999 671.9603515625 682.1267578124999C642.8296875 682.1267578124999 619.5642578124999 705.5876953124999 619.5642578124999 734.5228515624999S643.0251953124999 786.9189453125 671.9603515625 786.9189453125S724.3564453125 763.4580078125 724.3564453125 734.5228515624999zM873.1378906250001 681.3447265625C869.8142578125 751.53203125 853.7826171875001 813.703515625 802.3640625 864.9265625C751.1410156250001 916.149609375 688.96953125 932.18125 618.7822265625 935.700390625C546.4443359375 939.8060546875 329.626171875 939.8060546875 257.28828125 935.700390625C187.296484375 932.3767578125 125.125 916.3451171875 73.7064453125 865.1220703125S6.4517578125 751.7275390625 2.9326171875 681.540234375C-1.173046875 609.20234375 -1.173046875 392.3841796875 2.9326171875 320.0462890625C6.25625 249.858984375 22.287890625 187.6875 73.7064453125 136.4644531249999S187.1009765625 69.2097656249999 257.28828125 65.690625C329.626171875 61.5849609374999 546.4443359375 61.5849609374999 618.7822265625 65.690625C688.9695312499999 69.0142578124999 751.141015625 85.0458984374999 802.3640624999999 136.4644531249999C853.587109375 187.6874999999999 869.6187499999999 249.8589843749999 873.137890625 320.0462890624999C877.2435546875 392.3841796874999 877.2435546875 609.0068359374999 873.137890625 681.3447265624999zM779.68515625 242.4296875C764.435546875 204.1101562499999 734.9138671875 174.5884765625 696.398828125 159.1433593749999C638.7240234375 136.2689453125 501.8685546875 141.5476562499999 438.1330078125 141.5476562499999S237.346484375 136.4644531249999 179.8671875 159.1433593749999C141.54765625 174.39296875 112.0259765625 203.9146484374999 96.580859375 242.4296875C73.7064453125 300.1044921875 78.98515625 436.9599609375 78.98515625 500.6955078125S73.901953125 701.4820312500001 96.580859375 758.9613281249999C111.83046875 797.280859375 141.3521484375 826.8025390625 179.8671875 842.24765625C237.5419921875 865.1220703125 374.3974609375 859.843359375 438.1330078125 859.843359375S638.91953125 864.9265624999999 696.398828125 842.24765625C734.718359375 826.998046875 764.2400390624999 797.4763671874999 779.68515625 758.9613281249999C802.5595703125 701.2865234374999 797.280859375 564.4310546874999 797.280859375 500.6955078125S802.5595703125 299.908984375 779.68515625 242.4296875z" />
    <glyph glyph-name="level-up-alt"
      unicode="&#xE021;"
      horiz-adv-x="500.5" d="M463.88138671875 860.072103515625L323.1431328125 985.197103515625C299.437810546875 1006.26698046875 263.718533203125 1006.26698046875 240.0132109375 985.197103515625L99.273001953125 860.072103515625C56.644478515625 822.1787792968751 83.038033203125 750.75 140.837962890625 750.75H246.386765625V70.3828125H62.609421875A23.4531171875 23.4531171875 0 0 1 46.020583984375 63.510712890625L22.559646484375 40.049775390625C7.779255859375 25.27133984375 18.246744140625 0 39.148484375 0H269.847703125C295.762263671875 0 316.769578125 21.007314453125 316.769578125 46.921875V750.75H422.31642578125C480.09289453125 750.75 506.52555078125 822.16509375 463.88138671875 860.072103515625zM140.812546875 813.3125L281.578171875 938.4375L422.343796875 813.3125H140.812546875z" />
    <glyph glyph-name="list"
      unicode="&#xE022;"
      horiz-adv-x="1094.84375" d="M0 1001H272.99146875V728.00853125H0V1001zM0 637.011375H272.99146875V364.01990625H0V637.011375zM0 272.99146875H272.99146875V0H0V272.99146875zM363.988625 1001H1091.99715625V728.00853125H363.988625V1001zM363.988625 637.011375H1091.99715625V364.01990625H363.988625V637.011375zM363.988625 272.99146875H1091.99715625V0H363.988625V272.99146875z" />
    <glyph glyph-name="map-marker-check"
      unicode="&#xE023;"
      horiz-adv-x="750.75" d="M375.375 1001C168.91875 1001 0 832.08125 0 625.625C0 475.475 50.05 431.68125 337.8375000000001 18.7687500000001C347.2218750000001 6.2562500000001 361.2984375000001 0 375.375 0S403.528125 6.25625 412.9125 18.7687500000001C700.6999999999999 431.68125 750.75 475.4750000000001 750.75 625.625C750.75 832.08125 581.8312500000001 1001 375.375 1001zM375.40628125 74.29296875C336.961625 129.37925 302.89634375 177.6149375 272.7725 220.3138437499999C83.36453125 488.83209375 62.5625 521.77125 62.5625 625.625C62.5625 798.1098125 202.8901875 938.4375 375.375 938.4375S688.1875 798.1098125 688.1875 625.625C688.1875 521.80253125 667.38546875 488.83209375 477.9775 220.3138437499999C447.6346875000001 177.2708437499999 413.2878750000001 128.5659375 375.4062812500001 74.29296875zM550.0495 738.1123749999999C547.2341875 740.9276875 543.32403125 742.6794375 539.00721875 742.6794375C539.00721875 742.6794375 538.9759374999999 742.6794375 538.9759374999999 742.6794375H538.9759374999999C534.9719374999999 742.6794375 530.9679375 741.14665625 527.9023749999999 738.1123749999999L317.7549375 527.99621875L222.7850625 622.96609375C219.96975 625.78140625 216.05959375 627.53315625 211.74278125 627.53315625C211.74278125 627.53315625 211.7115 627.53315625 211.7115 627.53315625H211.7115C207.7074999999999 627.53315625 203.7034999999999 626.0003750000001 200.6379374999999 622.96609375L178.52209375 600.85025C172.4222499999999 594.75040625 172.4222499999999 584.83425 178.52209375 578.73440625L306.65009375 450.6064062500001C309.71565625 447.54084375 313.71965625 446.0393437500001 317.7236562499999 446.0393437500001S325.7316562499999 447.5721250000001 328.7659374999999 450.6064062500001L572.0714999999999 693.9119687499999C578.1713437499999 700.0118125 578.1713437499999 709.92796875 572.0714999999999 716.0278125L549.9869375 738.14365625z" />
    <glyph glyph-name="meh"
      unicode="&#xE024;"
      horiz-adv-x="969.71875" d="M484.859375 985.359375C217.013671875 985.359375 0 768.345703125 0 500.5S217.013671875 15.640625 484.859375 15.640625S969.71875 232.654296875 969.71875 500.5S752.705078125 985.359375 484.859375 985.359375zM484.859375 78.203125C252.0095703125 78.203125 62.5625 267.6501953125 62.5625 500.5S252.0095703125 922.796875 484.859375 922.796875S907.15625 733.3498046875 907.15625 500.5S717.7091796875001 78.203125 484.859375 78.203125zM328.453125 531.78125C363.0580078125 531.78125 391.015625 559.7388671875001 391.015625 594.34375S363.0580078125 656.90625 328.453125 656.90625S265.890625 628.9486328124999 265.890625 594.34375S293.8482421875001 531.78125 328.453125 531.78125zM641.265625 656.90625C606.6607421875 656.90625 578.703125 628.9486328124999 578.703125 594.34375S606.6607421875 531.78125 641.265625 531.78125S703.828125 559.7388671875001 703.828125 594.34375S675.8705078125 656.90625 641.265625 656.90625zM672.546875 344.09375H297.171875C279.9671875 344.09375 265.890625 330.0171875 265.890625 312.8125S279.9671875 281.53125 297.171875 281.53125H672.546875C689.7515625 281.53125 703.828125 295.6078125 703.828125 312.8125S689.7515625 344.09375 672.546875 344.09375z" />
    <glyph glyph-name="minus-circle"
      unicode="&#xE025;"
      horiz-adv-x="1001" d="M273.7109375 465.30859375C260.8230625 465.30859375 250.25 475.850375 250.25 488.76953125V512.23046875C250.25 525.11834375 260.8230625 535.69140625 273.7109375 535.69140625H727.2890625C740.20821875 535.69140625 750.75 525.11834375 750.75 512.23046875V488.76953125C750.75 475.850375 740.20821875 465.30859375 727.2890625 465.30859375H273.7109375zM985.359375 500.5C985.359375 232.63865625 768.3300625 15.640625 500.5 15.640625S15.640625 232.6699375 15.640625 500.5S232.6699375 985.359375 500.5 985.359375S985.359375 768.3300624999999 985.359375 500.5zM922.796875 500.5C922.796875 734.9216875 732.57559375 922.796875 500.5 922.796875C266.0783125 922.796875 78.203125 732.57559375 78.203125 500.5C78.203125 266.0783125000001 268.42440625 78.203125 500.5 78.203125C734.9216875 78.203125 922.796875 268.42440625 922.796875 500.5z" />
    <glyph glyph-name="minus"
      unicode="&#xE026;"
      horiz-adv-x="750.75" d="M735.109375 547.421875H15.640625C6.9991796875 547.421875 0 540.4226953125 0 531.78125V469.21875C0 460.5773046874999 6.9991796875 453.578125 15.640625 453.578125H735.109375C743.7508203125001 453.578125 750.75 460.5773046874999 750.75 469.21875V531.78125C750.75 540.4226953125 743.7508203125001 547.421875 735.109375 547.421875z" />
    <glyph glyph-name="mobile-android-alt"
      unicode="&#xE027;"
      horiz-adv-x="625.625" d="M437.9375 813.3125V344.09375H187.6875V813.3125H437.9375zM531.78125 1001H93.84375C42.042 1001 0 958.958 0 907.15625V93.84375C0 42.042 42.042 0 93.84375 0H531.78125C583.583 0 625.625 42.042 625.625 93.84375V907.15625C625.625 958.958 583.583 1001 531.78125 1001zM93.84375 62.5625C76.6390625 62.5625 62.5625 76.6390625 62.5625 93.84375V907.15625C62.5625 924.3609375 76.6390625 938.4375 93.84375 938.4375H531.78125C548.9859375 938.4375 563.0625 924.3609375 563.0625 907.15625V93.84375C563.0625 76.6390625 548.9859375 62.5625 531.78125 62.5625H93.84375zM477.0390625 875.875H148.5859375C135.6980625 875.875 125.125 865.3019375 125.125 852.4140625V304.9921875C125.125 292.07303125 135.6980625 281.53125 148.5859375 281.53125H477.0390625C489.9269375 281.53125 500.5 292.07303125 500.5 304.9921875V852.4140625C500.5 865.3019375 489.9269375 875.875 477.0390625 875.875zM383.1953125 187.6875H242.4296875C229.5418125 187.6875 218.96875 177.14571875 218.96875 164.2265625V148.5859375C218.96875 135.66678125 229.5418125 125.125 242.4296875 125.125H383.1953125C396.0831875 125.125 406.65625 135.66678125 406.65625 148.5859375V164.2265625C406.65625 177.14571875 396.0831875 187.6875 383.1953125 187.6875z" />
    <glyph glyph-name="money-bill"
      unicode="&#xE028;"
      horiz-adv-x="1251.25" d="M625.625 719.46875C521.99021875 719.46875 437.9375 621.52715625 437.9375 500.5C437.9375 379.66053125 522.0215 281.53125 625.625 281.53125S813.3125 379.4728437500001 813.3125 500.5S729.2285 719.46875 625.625 719.46875zM625.625 344.09375C556.6185625 344.09375 500.5 414.288875 500.5 500.5S556.6185625 656.90625 625.625 656.90625S750.75 586.711125 750.75 500.5S694.6314375 344.09375 625.625 344.09375zM1188.6875 875.875H62.5625C27.9654375 875.875 0 847.9095625 0 813.3125V187.6875C0 153.0904374999999 27.9654375 125.125 62.5625 125.125H1188.6875C1223.2845625 125.125 1251.25 153.0904374999999 1251.25 187.6875V813.3125C1251.25 847.9095625 1223.2845625 875.875 1188.6875 875.875zM62.5625 813.3125H187.6875C187.6875 744.3060625 131.5689375 688.1875 62.5625 688.1875V813.3125zM62.5625 187.6875V312.8125C131.5689375 312.8125 187.6875 256.6939375 187.6875 187.6875H62.5625zM1188.6875 187.6875H1063.5625C1063.5625 256.6939375 1119.6810624999998 312.8125 1188.6875 312.8125V187.6875zM1188.6875 375.375C1085.2716875 375.375 1001 291.1033125 1001 187.6875H250.25C250.25 291.1033125 165.9783125 375.375 62.5625 375.375V625.625C165.9783125 625.625 250.25 709.8966875 250.25 813.3125H1001C1001 709.8966875 1085.2716875 625.625 1188.6875 625.625V375.375zM1188.6875 688.1875C1119.6810624999998 688.1875 1063.5625 744.3060625 1063.5625 813.3125H1188.6875V688.1875z" />
    <glyph glyph-name="pencil-alt"
      unicode="&#xE029;"
      horiz-adv-x="1001" d="M964.352060546875 891.0542265625L891.056181640625 964.35010546875C842.1929140625 1013.213373046875 762.96923828125 1013.215328125 714.102060546875 964.35010546875L25.09929296875 275.3492929687501L0.295216796875 52.11065234375C-3.024505859375 22.225328125 22.231193359375 -3.028416015625 52.112607421875 0.2932617187499L275.351248046875 25.097337890625L964.354015625 714.1001054687499C1013.2153281249998 762.9653281249999 1013.2153281249998 842.1909589843749 964.352060546875 891.0542265624999zM321.9739960937501 321.9759511718751C334.191279296875 309.75866796875 353.996220703125 309.7606230468751 366.2115488281251 321.9759511718751L719.46875 675.231197265625L778.236443359375 616.46350390625L340.18359375 178.410654296875V246.33984375H246.33984375V340.18359375H178.410654296875L616.4635039062499 778.236443359375L675.2311972656249 719.46875L321.9739960937501 366.211548828125C309.756712890625 353.996220703125 309.756712890625 334.191279296875 321.9739960937501 321.9759511718751zM246.627240234375 84.8543007812501L131.28740625 72.038763671875L72.038763671875 131.2874062500001L84.85430078125 246.6272402343751L123.668466796875 285.44140625H191.59765625V191.59765625H285.44140625V123.668466796875L246.627240234375 84.85430078125zM920.112552734375 758.3396132812501L822.4739960937501 660.7010566406251L660.7010566406251 822.4739960937501L758.3396132812501 920.1125527343752C782.7878652343751 944.5608046875002 822.3645117187501 944.5647148437502 846.8166738281251 920.1125527343752L920.1125527343752 846.8166738281251C944.562759765625 822.3664667968751 944.5647148437502 782.7937304687501 920.1125527343752 758.3396132812501z" />
    <glyph glyph-name="play-circle"
      unicode="&#xE02A;"
      horiz-adv-x="1001" d="M500.5 15.640625C768.345703125 15.640625 985.359375 232.654296875 985.359375 500.5S768.345703125 985.359375 500.5 985.359375S15.640625 768.345703125 15.640625 500.5S232.654296875 15.640625 500.5 15.640625zM78.203125 500.5C78.203125 732.5677734374999 266.0861328125 922.796875 500.5 922.796875C732.5677734375 922.796875 922.796875 734.9138671875 922.796875 500.5C922.796875 268.4322265625 734.9138671874999 78.203125 500.5 78.203125C268.4322265625001 78.203125 78.203125 266.0861328125001 78.203125 500.5zM726.7025390625 535.69140625L382.6087890625 744.884765625C351.7185546875 762.089453125 312.8125 739.9970703125 312.8125 703.828125V297.171875C312.8125 261.1984375000001 351.5230468750001 238.910546875 382.6087890625 256.115234375L726.7025390625 453.578125C758.7658203125 471.3693359375001 758.7658203125 517.7046875000001 726.7025390625 535.69140625zM375.375 344.484765625V655.1466796875C375.375 664.335546875 385.3458984375 670.0052734374999 393.1662109375 665.1175781249999L656.1242187500001 505.3876953125C663.7490234375 500.6955078125 663.553515625 489.5515624999999 655.9287109375 485.250390625L392.970703125 334.318359375C385.150390625 329.8216796875 375.375 335.4914062500001 375.375 344.484765625z" />
    <glyph glyph-name="play"
      unicode="&#xE02B;"
      horiz-adv-x="1001" d="M238.613375 988.39365625L234.108875 516.641125V27.74646875L281.68765625 84.2716875L753.4401875 516.6411249999999L238.613375 988.39365625z" />
    <glyph glyph-name="plus-circle"
      unicode="&#xE02C;"
      horiz-adv-x="1001" d="M750.75 512.23046875V488.76953125C750.75 475.850375 740.20821875 465.30859375 727.2890625 465.30859375H535.69140625V273.7109375C535.69140625 260.79178125 525.149625 250.25 512.23046875 250.25H488.76953125C475.88165625 250.25 465.30859375 260.79178125 465.30859375 273.7109375V465.30859375H273.7109375C260.8230625 465.30859375 250.25 475.850375 250.25 488.76953125V512.23046875C250.25 525.11834375 260.8230625 535.69140625 273.7109375 535.69140625H465.30859375V727.2890625C465.30859375 740.1769375 475.88165625 750.75 488.76953125 750.75H512.23046875C525.149625 750.75 535.69140625 740.1769375 535.69140625 727.2890625V535.69140625H727.2890625C740.20821875 535.69140625 750.75 525.11834375 750.75 512.23046875zM985.359375 500.5C985.359375 232.63865625 768.3300625 15.640625 500.5 15.640625S15.640625 232.6699375 15.640625 500.5S232.6699375 985.359375 500.5 985.359375S985.359375 768.3300624999999 985.359375 500.5zM922.796875 500.5C922.796875 734.9216875 732.57559375 922.796875 500.5 922.796875C266.0783125 922.796875 78.203125 732.57559375 78.203125 500.5C78.203125 266.0783125000001 268.42440625 78.203125 500.5 78.203125C734.9216875 78.203125 922.796875 268.42440625 922.796875 500.5z" />
    <glyph glyph-name="plus"
      unicode="&#xE02D;"
      horiz-adv-x="750.75" d="M735.109375 547.421875H422.296875V860.234375C422.296875 868.8758203125 415.2976953125 875.875 406.65625 875.875H344.09375C335.4523046875001 875.875 328.453125 868.8758203125 328.453125 860.234375V547.421875H15.640625C6.9991796875 547.421875 0 540.4226953125 0 531.78125V469.21875C0 460.5773046874999 6.9991796875 453.578125 15.640625 453.578125H328.453125V140.765625C328.453125 132.1241796874999 335.4523046875001 125.125 344.09375 125.125H406.65625C415.2976953125 125.125 422.296875 132.1241796874999 422.296875 140.765625V453.578125H735.109375C743.7508203125001 453.578125 750.75 460.5773046874999 750.75 469.21875V531.78125C750.75 540.4226953125 743.7508203125001 547.421875 735.109375 547.421875z" />
    <glyph glyph-name="quote"
      unicode="&#xE02E;"
      horiz-adv-x="1319.5" d="M299.901875 601.8034749999999C285.232675 601.8034749999999 271.1572500000001 599.53075 257.145525 597.4582250000001C261.68415 612.97145 266.3547250000001 628.75085 273.853125 642.926375C281.3515250000001 663.5219500000001 293.06095 681.37615 304.7044 699.3623C314.439125 718.820375 331.60855 731.9948999999999 344.237075 748.64335C357.459375 764.825425 375.481925 775.59118 389.7575500000001 789.031425C403.7670000000001 803.0734075 422.1194250000001 810.0945125 436.72265 819.9907625C451.98335 828.8841925 465.271625 838.7135575 479.479 843.39437L514.934875 858.238745L546.11375 871.4116775L514.211425 1001L474.940375 991.37117625C462.377825 988.16156075 447.05115 984.41700175 429.617825 979.9369125C411.7932 976.5935725 392.7833 967.43283 371.600775 959.0742525C350.684425 949.5793125 326.47615 943.159945 303.98095 927.91426C281.3515250000001 913.3371975 255.239075 901.16754 232.216075 881.6423525C209.9162975 861.5152 183.0126025 844.0629925000001 163.1473025 818.4528625C141.4401625 794.5144025 119.99624 769.37315 103.35416 740.75365C84.080815 713.47185 70.9906925 683.5146500000001 57.17712 653.89415C44.6789525 624.271375 34.6148075 593.97975 26.3925025 564.55945C10.8027465 505.58235 3.8301445 449.546825 1.1331957 401.603475C-1.10329765 353.59415 0.212286165 313.6724500000001 2.9750175 284.7867750000001C3.96170775 271.1458750000001 5.803525 257.9053750000001 7.119112 248.746225L8.763573 237.5122750000001L10.47384975 237.9126750000001C22.17340125 182.3571750000001 49.1061025 131.3039 88.156705 90.6587499999999C127.20708 50.0136 176.7795575 21.4373250000001 231.14 8.2355C285.49885 -4.966325 342.426175 -2.2522499999999 395.3313 16.059225C448.2387 34.3707000000001 494.964925 67.53565 530.1045750000001 111.7161500000001C565.244225 155.89665 587.3595 209.28635 593.89785 265.7109000000001C600.433925 322.1331750000001 591.12235 379.2857250000001 567.041475 430.555125C542.958325 481.824525 505.09095 525.1155 457.81645 555.420775C410.539675 585.72605 355.7918 601.808025 299.901875 601.8034749999999zM1023.474725 601.8034749999999C1008.805525 601.8034749999999 994.727825 599.53075 980.7161 597.4582250000001C985.257 612.97145 989.9253 628.75085 997.425975 642.926375C1004.924375 663.5219500000001 1016.631525 681.37615 1028.274975 699.3623C1038.0097 718.820375 1055.179125 731.9948999999999 1067.80765 748.64335C1081.02995 764.825425 1099.054775 775.59118 1113.328125 789.031425C1127.33985 803.0734075 1145.692275 810.0945125 1160.293225 819.9907625C1175.5562 828.8841925 1188.8422 838.7135575 1203.05185 843.39437L1238.5054499999999 858.238745L1269.684325 871.4116775L1237.782 1001L1198.51095 991.37117625C1185.9484 988.16156075 1170.621725 984.41700175 1153.190675 979.9369125C1135.363775 976.5935725 1116.353875 967.43283 1095.173625 959.0742525C1074.320975 949.5124275 1050.049 943.159945 1027.5515249999999 927.847375C1004.924375 913.2703125 978.80965 901.100655 955.78665 881.5754675C933.4871 861.4485425 906.58295 843.9961075 886.7176499999999 818.4528625C865.011875 794.5144025 843.567725 769.37315 826.9260999999999 740.75365C807.6523 713.47185 794.56195 683.5146500000001 780.7481500000001 653.89415C768.2493 624.271375 758.1869750000001 593.97975 749.96285 564.55945C734.37455 505.58235 727.4016750000001 449.546825 724.703525 401.603475C722.4671999999999 353.59415 723.7844249999999 313.6724500000001 726.546275 284.7867750000001C727.533625 271.1458750000001 729.3741 257.9053750000001 730.691325 248.746225L732.333875 237.5122750000001L734.0446750000001 237.9126750000001C745.745 182.3571750000001 772.6764499999999 131.3039 811.7291 90.6587499999999C850.779475 50.0136 900.351725 21.4373250000001 954.710575 8.2355C1009.069425 -4.966325 1065.99675 -2.2522499999999 1118.90415 16.059225C1171.809275 34.3707000000001 1218.5355 67.53565 1253.67515 111.7161500000001C1288.8148 155.89665 1310.9323499999998 209.28635 1317.468425 265.7109000000001C1324.0045 322.1331750000001 1314.692925 379.2857250000001 1290.6120500000002 430.555125C1266.5289 481.824525 1228.661525 525.1155 1181.387025 555.420775C1134.112525 585.72605 1079.362375 601.808025 1023.474725 601.8034749999999z" />
    <glyph glyph-name="random"
      unicode="&#xE02F;"
      horiz-adv-x="1001" d="M0 750.75V766.390625C0 779.294140625 10.557421875 789.8515625 23.4609375 789.8515625H230.308203125C236.7599609375 789.8515625 243.0162109375 787.114453125 247.512890625 782.2267578125L422.8833984375001 592.5841796875L380.2626953125 546.4443359375L213.103515625 727.2890625H23.4609375C10.557421875 727.2890625 0 737.846484375 0 750.75zM982.622265625 206.0652343749999L857.4972656250001 80.9402343749999C818.2001953125 41.6431640624999 750.75 69.60078125 750.75 125.125V211.1484375H700.5044921875C694.052734375 211.1484375 687.796484375 213.8855468749999 683.2998046875 218.7732421874999L507.929296875 408.4158203125L550.5500000000001 454.5556640625L717.513671875 273.7109375H750.75V375.375C750.75 431.0947265625 818.2001953125 458.8568359375 857.4972656250001 419.5597656250001L982.622265625 294.4347656250001C1007.0607421875 269.9962890625001 1007.0607421875 230.5037109375001 982.622265625 206.0652343750001zM943.91171875 255.7242187499999L818.78671875 380.8492187499999C813.8990234375 385.7369140624999 805.4921875 382.2177734374999 805.4921875 375.3749999999999V125.1249999999999C805.4921875 118.0867187499998 813.8990234375 114.567578125 818.78671875 119.6507812499999L943.91171875 244.7757812499999C947.03984375 247.7083984374999 947.03984375 252.7916015624999 943.91171875 255.7242187499999zM982.622265625 706.5652343749998L857.4972656250001 581.4402343749998C818.2001953125 542.1431640624999 750.75 570.10078125 750.75 625.6249999999999V727.2890624999999H717.513671875L247.512890625 218.7732421874999C243.0162109375 213.8855468749999 236.7599609375 211.1484375 230.308203125 211.1484375H23.4609375C10.557421875 211.1484375 0 221.7058593749999 0 234.609375V250.25C0 263.1535156250001 10.557421875 273.7109375 23.4609375 273.7109375H213.103515625L683.1042968749999 782.2267578125001C687.6009765625 787.1144531250001 693.8572265624999 789.8515625 700.308984375 789.8515625H750.75V875.875C750.75 931.5947265625 818.2001953125 959.3568359375 857.4972656250001 920.059765625L982.622265625 794.934765625C1007.0607421875 770.4962890625 1007.0607421875 731.0037109374999 982.622265625 706.5652343749999zM943.91171875 756.2242187499999L818.78671875 881.3492187499999C813.8990234375 886.2369140624999 805.4921875 882.7177734374999 805.4921875 875.8749999999999V625.6249999999999C805.4921875 618.5867187499998 813.8990234375 615.067578125 818.78671875 620.1507812499999L943.91171875 745.2757812499999C947.03984375 748.2083984374999 947.03984375 753.2916015624999 943.91171875 756.2242187499999z" />
    <glyph glyph-name="reply-all"
      unicode="&#xE030;"
      horiz-adv-x="1126.125" d="M206.002671875 518.817126953125L518.81908203125 206.0437285156251C557.95974609375 166.922615234375 625.625 194.352361328125 625.625 250.2871464843751V389.390955078125C863.3233984374999 380.8668144531249 916.7361328125 334.1990996093749 862.58046875 142.2299785156249C846.25556640625 84.379216796875 912.4349609375 40.155349609375 959.72830078125 74.760232421875C1060.5516796875002 148.4862285156249 1126.125 252.652791015625 1126.125 379.693767578125C1126.125 678.6252128906249 851.4365234375 726.1922636718748 625.625 733.699763671875V875.8143925781249C625.625 931.710076171875 557.99884765625 959.237576171875 518.81908203125 920.0578105468747L206.002671875 607.3039628906249C181.581791015625 582.8654863281249 181.581791015625 543.2556035156249 206.002671875 518.8171269531249zM250.25 563.0605449218749L563.0625 875.873044921875V672.349412109375C817.545244140625 669.71983203125 1063.5625 636.63991015625 1063.5625 379.6937675781251C1063.5625 252.4181816406251 984.40138671875 170.187595703125 922.796875 125.123044921875C1002.914021484375 409.13137890625 847.860685546875 450.7882285156251 563.0625 453.380662109375V250.248044921875L250.25 563.060544921875zM18.3229921875 607.300052734375L331.1354921875 920.061720703125C357.4645292968751 946.3907578125 396.6208339843751 942.556849609375 419.4835175781251 920.26700390625L62.5625 563.0605449218749L419.4893828125 205.844310546875C396.616923828125 183.5505546875001 357.43911328125 179.7498828125001 331.137447265625 206.0515488281251L18.324947265625 518.8210371093751C-6.1076640625 543.2556035156251 -6.1076640625 582.8674414062501 18.3229921875 607.3000527343751z" />
    <glyph glyph-name="reply"
      unicode="&#xE031;"
      horiz-adv-x="1251.25" d="M625.625 0L0 500.5L625.625 1001V688.1875C971.1618583333334 688.1875 1251.25 408.0951875 1251.25 62.5625C1251.25 45.4787666666666 1250.624375 28.5952333333333 1249.248 11.8868749999999C1157.7148916666667 185.43525 978.352375 305.3675625 770.3320625 312.4996875L750.75 312.8125H625.625V0zM500.5 437.9375H752.877125L774.5863125000001 437.4995624999999C854.979125 434.8093750000001 932.4898916666666 418.1051875 1004.5618916666668 389.5766875C912.7868750000002 495.8078125 777.02625 563.0625 625.625 563.0625H500.5V740.6774375L200.325125 500.5L500.5 260.3225624999999V437.9375z" />
    <glyph glyph-name="search-plus"
      unicode="&#xE032;"
      horiz-adv-x="1001" d="M625.233984375 602.1640625V586.5234375C625.233984375 573.619921875 614.6765625 563.0625 601.773046875 563.0625H437.5464843750001V398.8359375C437.5464843750001 385.932421875 426.9890625 375.375 414.0855468750001 375.375H398.4449218750001C385.54140625 375.375 374.9839843750001 385.932421875 374.9839843750001 398.8359375V563.0625H210.757421875C197.85390625 563.0625 187.296484375 573.619921875 187.296484375 586.5234375V602.1640625C187.296484375 615.067578125 197.85390625 625.625 210.757421875 625.625H374.9839843750001V789.8515625C374.9839843750001 802.755078125 385.54140625 813.3125 398.4449218750001 813.3125H414.0855468750001C426.9890625 813.3125 437.5464843750001 802.755078125 437.5464843750001 789.8515625V625.625H601.773046875C614.6765625 625.625 625.233984375 615.067578125 625.233984375 602.1640625zM993.7662109375 29.326171875L971.673828125 7.2337890625C962.4849609375 -1.955078125 947.6263671875 -1.955078125 938.4375 7.2337890625L686.232421875 259.4388671875C681.7357421875 263.935546875 679.3896484375 269.80078125 679.3896484375 276.05703125V292.6751953125C607.2472656250001 227.3755859375 511.6439453125 187.6875 406.65625 187.6875C183.386328125 187.6875 2.9326171875 365.7951171875001 0 589.0650390625001C-2.9326171875 817.8091796875 183.1908203125 1003.9326171875 411.9349609375 1001C635.2048828124999 998.0673828125 813.3125 817.613671875 813.3125 594.34375C813.3125 489.3560546875 773.6244140625 393.752734375 708.3248046875 321.6103515625H724.94296875C731.19921875 321.6103515625 737.064453125 319.06875 741.5611328125 314.767578125L993.7662109375 62.5625C1002.955078125 53.3736328125 1002.955078125 38.5150390625 993.7662109375 29.326171875zM750.75 594.34375C750.75 784.5728515625 596.8853515625 938.4375 406.65625 938.4375S62.5625 784.5728515625 62.5625 594.34375S216.4271484375 250.25 406.65625 250.25S750.75 404.1146484375 750.75 594.34375z" />
    <glyph glyph-name="search"
      unicode="&#xE033;"
      horiz-adv-x="1001" d="M450.45 922.67175C244.9321875 922.67175 78.32825 756.0678125 78.32825 550.55S244.9321875 178.4282500000001 450.45 178.4282500000001S822.57175 345.0321875000001 822.57175 550.5500000000001S655.9678124999999 922.67175 450.4499999999999 922.67175zM0 550.55C0 799.32978125 201.67021875 1001 450.45 1001S900.9 799.32978125 900.9 550.55S699.2297812500001 100.1 450.45 100.1S0 301.7702187499999 0 550.55zM711.585875 289.414125C726.100375 303.9286249999999 749.65515625 303.9286249999999 764.1696562500001 289.414125L990.08284375 63.5009375C1004.59734375 48.9864375 1004.59734375 25.4316562499999 990.08284375 10.9171562499999S952.0135625000001 -3.59734375 937.4990625 10.9171562499999L711.585875 236.8303437499999C697.0713750000001 251.3448437499999 697.0713750000001 274.8996249999999 711.585875 289.414125z" />
    <glyph glyph-name="shield-check"
      unicode="&#xE034;"
      horiz-adv-x="1001" d="M912.036125 837.36778125L536.661125 993.77403125C525.99421875 998.3098125 513.60684375 1000.96871875 500.59384375 1000.96871875S475.19346875 998.34109375 463.9009375 993.5550625L464.5265625 993.77403125L89.1515625 837.36778125C54.14784375 822.8845625 31.28125 788.69415625 31.28125 750.75C31.28125 362.6748125000001 255.129875 94.4380937499999 464.338875 7.2259687500001C487.4244375 -2.3460937499999 513.41915625 -2.3460937499999 536.4734374999999 7.2259687500001C704.0158125 77.0144375000001 969.71875 318.0990312500002 969.71875 750.75C969.71875 788.69415625 946.8521562499998 822.8845625 912.036125 837.36778125zM512.60584375 64.90859375C504.78553125 61.78046875 496.1831875 61.78046875 488.5505625 64.90859375C297.14059375 140.765625 93.81246875 406.65625 93.81246875 750.75C93.81246875 763.4501875 101.44509375 774.80528125 112.95659375 779.68515625L488.33159375 936.09140625C495.96421875 939.21953125 504.75425 939.21953125 512.3868749999999 936.09140625L887.7618749999999 779.68515625C899.4923437499999 774.80528125 907.12496875 763.4501875 906.93728125 750.75C907.12496875 406.65625 703.79684375 140.765625 512.60584375 64.90859375zM778.9031249999999 700.2933437500001C769.7064375 709.49003125 754.84784375 709.49003125 745.65115625 700.48103125L426.17575 383.5706875L291.25971875 519.4564375C282.06303125 528.653125 267.2044375 528.653125 258.00775 519.644125L241.39740625 503.0337812500001C232.20071875 493.8370937500001 232.20071875 478.9785000000001 241.20971875 469.7818125L409.15875 300.45640625C418.3554375 291.2597187500001 433.21403125 291.2597187500001 442.41071875 300.2687187500001L795.2945 650.24334375C804.4911875 659.4400312500001 804.4911875 674.298625 795.4821875 683.4953125000001z" />
    <glyph glyph-name="shopping-basket"
      unicode="&#xE035;"
      horiz-adv-x="1126.125" d="M1102.6640625 625.625H952.367431640625L680.157994140625 928.081451171875C668.6034824218749 940.922404296875 648.82395703125 941.9644609375 635.9810488281249 930.4060390625S622.0980390625 899.070046875 633.6564609374999 886.2290937500001L868.201318359375 625.625H257.9236816406251L492.470494140625 886.231048828125C504.028916015625 899.070046875 502.986859375 918.85152734375 490.14590625 930.407994140625C477.302998046875 941.966416015625 457.52347265625 940.926314453125 445.9689609375 928.08340625L173.757568359375 625.625H23.4609375C10.504634765625 625.625 0 615.120365234375 0 602.1640625V586.5234375C0 573.567134765625 10.504634765625 563.0625 23.4609375 563.0625H55.6102421875L113.88330078125 143.496869140625C120.32723828125 97.1009101562499 159.9957734375 62.5625 206.83553515625 62.5625H919.2894648437498C966.1292265625 62.5625 1005.79776171875 97.1009101562499 1012.24169921875 143.496869140625L1070.5147578125 563.0625H1102.6640625C1115.620365234375 563.0625 1126.125 573.567134765625 1126.125 586.5234375V602.1640625C1126.125 615.120365234375 1115.620365234375 625.625 1102.6640625 625.625zM950.2735429687498 152.103123046875C948.136642578125 136.7225234375 934.8166953125 125.125 919.2894648437498 125.125H206.83553515625C191.3083046875 125.125 177.988357421875 136.7225234375001 175.85145703125 152.103123046875L118.77490625 563.0625H1007.352048828125L950.27354296875 152.103123046875zM594.34375 453.578125V234.609375C594.34375 217.332349609375 580.339525390625 203.328125 563.0625 203.328125C545.7874296875 203.328125 531.78125 217.332349609375 531.78125 234.609375V453.578125C531.78125 470.855150390625 545.7874296875 484.859375 563.0625 484.859375C580.339525390625 484.859375 594.34375 470.855150390625 594.34375 453.578125zM813.3125 453.578125V234.609375C813.3125 217.332349609375 799.308275390625 203.328125 782.03125 203.328125S750.75 217.332349609375 750.75 234.609375V453.578125C750.75 470.855150390625 764.754224609375 484.859375 782.03125 484.859375S813.3125 470.855150390625 813.3125 453.578125zM375.375 453.578125V234.609375C375.375 217.332349609375 361.3688203125 203.328125 344.09375 203.328125S312.8125 217.332349609375 312.8125 234.609375V453.578125C312.8125 470.855150390625 326.8186796875 484.859375 344.09375 484.859375S375.375 470.855150390625 375.375 453.578125z" />
    <glyph glyph-name="shopping-cart"
      unicode="&#xE036;"
      horiz-adv-x="1126.125" d="M1079.185529296875 875.875H252.7525L236.468654296875 962.725435546875C232.30629296875 984.91752734375 212.929513671875 1001 190.35031640625 1001H23.4609375C10.504634765625 1001 0 990.495365234375 0 977.5390625V961.8984375C0 948.942134765625 10.504634765625 938.4375 23.4609375 938.4375H177.3646875L314.077435546875 209.2989335937499C293.858017578125 187.07360546875 281.53125 157.5401953124999 281.53125 125.125C281.53125 56.02080859375 337.55205859375 0 406.65625 0S531.78125 56.02080859375 531.78125 125.125A124.501330078125 124.501330078125 0 0 1 515.0008144531249 187.6875H798.813640625A124.501330078125 124.501330078125 0 0 1 782.0332050781249 125.125C782.0332050781249 56.02080859375 838.0540136718748 0 907.1582050781248 0C976.262396484375 0 1032.2832050781249 56.02080859375 1032.2832050781249 125.125C1032.2832050781249 160.302720703125 1017.74719921875 192.066875 994.378150390625 214.8005234375C989.31254296875 234.822478515625 971.204609375 250.25 948.85415625 250.25H370.0571875L346.59625 375.375H994.471994140625C1016.697322265625 375.375 1035.87468359375 390.9687031250001 1040.4085097656248 412.7267675781251L1125.1239999999998 819.3830175781251C1131.1925625 848.521501953125 1108.9496386718752 875.875 1079.185529296875 875.875zM469.21875 125.125C469.21875 90.6276464843751 441.1536035156251 62.5625 406.65625 62.5625S344.09375 90.6276464843751 344.09375 125.125S372.158896484375 187.6875 406.65625 187.6875S469.21875 159.6223535156249 469.21875 125.125zM907.15625 62.5625C872.6588964843751 62.5625 844.59375 90.6276464843751 844.59375 125.125S872.6588964843751 187.6875 907.15625 187.6875S969.71875 159.6223535156249 969.71875 125.125S941.653603515625 62.5625 907.15625 62.5625zM981.7542109375 437.9375H334.86578125L264.48296875 813.3125H1059.9573359375L981.7542109375 437.9375z" />
    <glyph glyph-name="sign-out-alt"
      unicode="&#xE037;"
      horiz-adv-x="1001" d="M312.8125 576.5525390625C312.8125 593.7572265625 326.8890625 607.8337890625 344.09375 607.8337890625H625.625V791.4156250000001C625.625 805.2966796875 642.4386718750001 812.3349609375 652.2140625000001 802.5595703125L929.0531250000003 522.787890625C941.3701171875002 510.4708984375001 941.3701171875002 490.7246093750001 929.0531250000003 478.4076171875001L652.2140625000001 198.6359375000001C642.4386718750001 188.8605468750001 625.625 195.7033203125001 625.625 209.7798828125V393.3617187500002H344.09375C326.8890625 393.3617187500002 312.8125 407.4382812500001 312.8125 424.6429687500002V576.5525390625M250.25 576.5525390625V424.6429687500002C250.25 372.8333984375002 292.2841796875 330.7992187500002 344.09375 330.7992187500002H563.0625V209.7798828125001C563.0625 140.3746093750001 647.130859375 105.1832031250001 696.398828125 154.4511718750001L973.4333984375 434.0273437500001C1010.1888671875 470.7828125000001 1010.1888671875 530.2171875000001 973.4333984375 566.9726562500001L696.398828125 846.7443359375C647.3263671875 895.816796875 563.0625 861.01640625 563.0625 791.415625V670.3962890625H344.09375C292.2841796875 670.3962890625 250.25 628.1666015625001 250.25 576.5525390625zM0 782.03125V218.96875C0 167.1591796875 42.0341796875 125.125 93.84375 125.125H351.9140625C364.817578125 125.125 375.375 135.6824218749999 375.375 148.5859375V164.2265625C375.375 177.1300781250001 364.817578125 187.6875 351.9140625 187.6875H93.84375C76.6390625 187.6875 62.5625 201.7640625 62.5625 218.96875V782.03125C62.5625 799.2359375 76.6390625 813.3125 93.84375 813.3125H351.9140625C364.817578125 813.3125 375.375 823.869921875 375.375 836.7734375V852.4140625C375.375 865.317578125 364.817578125 875.875 351.9140625 875.875H93.84375C42.0341796875 875.875 0 833.8408203125 0 782.03125z" />
    <glyph glyph-name="smile"
      unicode="&#xE038;"
      horiz-adv-x="969.71875" d="M484.859375 985.359375C217.013671875 985.359375 0 768.345703125 0 500.5S217.013671875 15.640625 484.859375 15.640625S969.71875 232.654296875 969.71875 500.5S752.705078125 985.359375 484.859375 985.359375zM484.859375 78.203125C252.0095703125 78.203125 62.5625 267.6501953125 62.5625 500.5S252.0095703125 922.796875 484.859375 922.796875S907.15625 733.3498046875 907.15625 500.5S717.7091796875001 78.203125 484.859375 78.203125zM661.207421875 364.035546875C617.413671875 311.639453125 553.0916015624999 281.53125 484.859375 281.53125S352.305078125 311.639453125 308.5113281250001 364.035546875C297.3673828125001 377.330078125 277.62109375 379.0896484375 264.5220703125001 367.945703125C251.2275390625 356.8017578125 249.46796875 337.2509765625 260.6119140625001 323.9564453125C316.1361328125 257.2882812500001 398.05390625 218.96875 484.859375 218.96875S653.5826171875 257.2882812500001 709.30234375 324.151953125C720.4462890625 337.4464843750001 718.6867187500001 357.1927734375 705.3921875 368.1412109375C692.09765625 379.0896484375001 672.3513671875 377.330078125 661.207421875 364.035546875zM328.453125 531.78125C363.0580078125 531.78125 391.015625 559.7388671875001 391.015625 594.34375S363.0580078125 656.90625 328.453125 656.90625S265.890625 628.9486328124999 265.890625 594.34375S293.8482421875001 531.78125 328.453125 531.78125zM641.265625 531.78125C675.8705078125 531.78125 703.828125 559.7388671875001 703.828125 594.34375S675.8705078125 656.90625 641.265625 656.90625S578.703125 628.9486328124999 578.703125 594.34375S606.6607421875 531.78125 641.265625 531.78125z" />
    <glyph glyph-name="spinner"
      unicode="&#xE039;"
      horiz-adv-x="1001" d="M563.0625 938.4375C563.0625 903.885404296875 535.052095703125 875.875 500.5 875.875S437.9375 903.885404296875 437.9375 938.4375S465.947904296875 1001 500.5 1001S563.0625 972.989595703125 563.0625 938.4375zM500.5 125.125C465.947904296875 125.125 437.9375 97.114595703125 437.9375 62.5625S465.947904296875 0 500.5 0S563.0625 28.010404296875 563.0625 62.5625S535.052095703125 125.125 500.5 125.125zM1001 500.5C1001 535.052095703125 972.989595703125 563.0625 938.4375 563.0625S875.875 535.052095703125 875.875 500.5S903.885404296875 437.9375 938.4375 437.9375S1001 465.947904296875 1001 500.5zM125.125 500.5C125.125 535.052095703125 97.114595703125 563.0625 62.5625 563.0625S0 535.052095703125 0 500.5S28.010404296875 437.9375 62.5625 437.9375S125.125 465.947904296875 125.125 500.5zM190.831265625 253.393765625C156.279169921875 253.393765625 128.268765625 225.3833613281251 128.268765625 190.831265625S156.279169921875 128.268765625 190.831265625 128.268765625S253.393765625 156.279169921875 253.393765625 190.831265625S225.383361328125 253.393765625 190.831265625 253.393765625zM810.168734375 253.393765625C775.616638671875 253.393765625 747.606234375 225.3833613281251 747.606234375 190.831265625S775.616638671875 128.268765625 810.168734375 128.268765625S872.731234375 156.279169921875 872.731234375 190.831265625S844.720830078125 253.393765625 810.168734375 253.393765625zM190.831265625 872.731234375C156.279169921875 872.731234375 128.268765625 844.720830078125 128.268765625 810.168734375C128.268765625 775.616638671875 156.279169921875 747.606234375 190.831265625 747.606234375S253.393765625 775.616638671875 253.393765625 810.168734375C253.393765625 844.720830078125 225.383361328125 872.731234375 190.831265625 872.731234375z" />
    <glyph glyph-name="square"
      unicode="&#xE03A;"
      horiz-adv-x="875.875" d="M782.03125 938.4375H93.84375C42.0341796875 938.4375 0 896.4033203125 0 844.59375V156.40625C0 104.5966796875 42.0341796875 62.5625 93.84375 62.5625H782.03125C833.8408203125 62.5625 875.875 104.5966796875 875.875 156.40625V844.59375C875.875 896.4033203125 833.8408203125 938.4375 782.03125 938.4375zM813.3125 156.40625C813.3125 139.2015625 799.2359375 125.125 782.03125 125.125H93.84375C76.6390625 125.125 62.5625 139.2015625 62.5625 156.40625V844.59375C62.5625 861.7984375 76.6390625 875.875 93.84375 875.875H782.03125C799.2359375 875.875 813.3125 861.7984375 813.3125 844.59375V156.40625z" />
    <glyph glyph-name="star"
      unicode="&#xE03B;"
      horiz-adv-x="1001" d="M434.02734375 899.3359375L325.10603125 676.45703125L78.7661875 641.265625C35.19140625 634.5714375 18.42465625 580.92409375 50.26896875 549.1110625L226.2260000000001 376.501125L184.34040625 133.508375C177.64621875 89.93359375 224.56809375 56.4313750000001 263.1065937500001 76.5139375L482.6384062500001 192.1294375000001L700.48103125 76.5139375C739.01953125 56.40009375 785.94140625 89.93359375 779.24721875 133.508375L737.3616250000001 376.501125L913.3186562500002 549.1110625000001C945.1629687500002 580.955375 928.3962187500002 634.5714375 884.8214375 641.265625L640.1707812500001 676.45703125L529.5602812500001 899.3359375C511.1356250000001 937.8744375000002 454.1411875000001 939.563625 434.0273437500001 899.3359375z" />
    <glyph glyph-name="store"
      unicode="&#xE03C;"
      horiz-adv-x="1001" d="M885.759875 672.672L802.8958437499999 921.2328125C800.8625624999999 927.33265625 795.1380937499999 931.46178125 788.6941562499999 931.46178125H208.7397812499999C202.2958437499999 931.46178125 196.5713749999999 927.33265625 194.53809375 921.2328125L111.6740625 672.672C111.1735625 671.13921875 110.89203125 669.5438750000001 110.89203125 667.94853125V87.9941562500001C110.89203125 79.7359062500001 117.58621875 73.04171875 125.84446875 73.04171875H871.495625C879.753875 73.04171875 886.4480625 79.73590625 886.4480625 87.9941562500001V667.9485312500001C886.4480625 669.5438750000001 886.1978125 671.13921875 885.6660312500001 672.672zM852.82071875 676.89496875C822.1338124999999 654.4663125 787.8495625 643.8306875 745.52603125 643.8306875C707.2064999999999 643.8306875 670.2320625 655.74884375 637.98109375 678.1462187499999V901.5881875H777.93340625L852.82071875 676.92625zM389.42028125 901.55690625H608.0449375V678.08365625C575.82525 655.7175625 538.8508125 643.79940625 500.5312812499999 643.79940625C460.7415312499999 643.79940625 422.51584375 656.6872812500001 389.42028125 680.83640625zM219.5318125 901.55690625H359.4841249999999V680.83640625C326.41984375 656.6872812500001 288.19415625 643.7994062500001 248.373125 643.7994062500001C210.86690625 643.7994062500001 175.049875 654.654 144.0188749999999 675.0806562500001L219.50053125 901.5569062500002zM140.8594687499999 102.977875V642.04765625C173.57965625 623.6542812500002 210.21 613.89453125 248.373125 613.89453125C293.4806875 613.89453125 336.8364999999999 627.9085312500001 374.4365625 654.5601562500001C412.036625 627.9085312500001 455.3924375 613.89453125 500.5 613.89453125C544.1060624999999 613.89453125 586.2419062499999 627.001375 622.997375 651.9012500000001C659.784125 627.001375 701.8886875 613.89453125 745.4947500000001 613.89453125C787.69315625 613.89453125 824.2296562500001 623.7168437500001 856.57446875 643.4865937500001V102.977875zM646.42703125 543.2927500000001H351.0381875C342.7799375 543.2927500000001 336.08575 536.5985625000001 336.08575 528.3403125V253.7535000000001C336.08575 245.4952500000001 342.7799375 238.8010625000001 351.0381875 238.8010625000001H646.42703125C654.68528125 238.8010625000001 661.37946875 245.49525 661.37946875 253.7535000000001V528.3403125000001C661.37946875 536.5985625000001 654.6852812500001 543.2927500000001 646.42703125 543.2927500000001zM365.990625 513.35659375H485.26603125V268.67465625H365.990625zM631.4745937499999 268.67465625H515.2334687499999V513.35659375H631.4745937499999z" />
    <glyph glyph-name="sync"
      unicode="&#xE03D;"
      horiz-adv-x="1001" d="M961.8984375 985.359375H942.34765625C929.391353515625 985.359375 918.88671875 974.854740234375 918.88671875 961.8984375V745.614009765625C834.6795488281249 889.050271484375 678.850046875 985.359375 500.5 985.359375C240.9203671875 985.359375 28.982078125 781.37043359375 16.24669921875 524.952162109375C15.583927734375 511.622439453125 26.344677734375 500.5 39.690041015625 500.5H59.272103515625C71.69271484375 500.5 82.040943359375 510.175681640625 82.68807421875 522.578697265625C94.150697265625 742.507390625 275.855658203125 918.88671875 500.5 918.88671875C662.5016835937499 918.88671875 803.0229238281249 826.847505859375 872.529861328125 692.09765625H649.0859375C636.1296347656249 692.09765625 625.625 681.593021484375 625.625 668.63671875V649.0859375C625.625 636.129634765625 636.1296347656249 625.625 649.0859375 625.625H961.8984375C974.854740234375 625.625 985.359375 636.129634765625 985.359375 649.0859375V961.8984375C985.359375 974.854740234375 974.854740234375 985.359375 961.8984375 985.359375zM961.309958984375 500.5H941.7298515625C929.3111953125002 500.5 918.959056640625 490.824318359375 918.3138808593752 478.421302734375C906.845392578125 257.76141015625 724.44637890625 82.11328125 500.5 82.11328125C338.99490625 82.11328125 198.10415625 173.908109375 128.450587890625 308.90234375H351.9140625C364.870365234375 308.90234375 375.375 319.406978515625 375.375 332.36328125V351.9140625C375.375 364.8703652343751 364.870365234375 375.375 351.9140625 375.375H39.1015625C26.145259765625 375.375 15.640625 364.8703652343751 15.640625 351.9140625V39.1015625C15.640625 26.1452597656249 26.145259765625 15.640625 39.1015625 15.640625H58.65234375C71.608646484375 15.640625 82.11328125 26.1452597656249 82.11328125 39.1015625V255.3859902343751C166.320451171875 111.949728515625 322.151908203125 15.640625 500.5 15.640625C760.0815878906251 15.640625 972.017921875 219.62956640625 984.75330078125 476.047837890625C985.416072265625 489.377560546875 974.655322265625 500.5 961.309958984375 500.5z" />
    <glyph glyph-name="tachometer-alt"
      unicode="&#xE03E;"
      horiz-adv-x="1126.125" d="M563.0625 703.828125C588.9868359375 703.828125 609.984375 724.8256640625 609.984375 750.75S588.9868359375 797.671875 563.0625 797.671875S516.140625 776.6743359375 516.140625 750.75S537.1381640625 703.828125 563.0625 703.828125zM297.171875 688.1875C271.2475390625001 688.1875 250.25 667.1899609375 250.25 641.265625S271.2475390625001 594.34375 297.171875 594.34375S344.09375 615.3412890625 344.09375 641.265625S323.0962109375 688.1875 297.171875 688.1875zM828.953125 688.1875C803.0287890625 688.1875 782.03125 667.1899609375 782.03125 641.265625S803.0287890625 594.34375 828.953125 594.34375S875.875 615.3412890625 875.875 641.265625S854.8774609375 688.1875 828.953125 688.1875zM938.4375 422.296875C912.5131640625 422.296875 891.515625 401.2993359375 891.515625 375.375S912.5131640625 328.453125 938.4375 328.453125S985.359375 349.4506640625 985.359375 375.375S964.3618359375 422.296875 938.4375 422.296875zM563.0625 938.4375C252.0877734375 938.4375 0 686.3497265625 0 375.375C0 272.146875 27.85986328125 175.4487109375 76.3653515625 92.2796875C87.33333984375 73.4718359374999 108.233125 62.5625 130.0126953125 62.5625H996.1123046875C1017.891875 62.5625 1038.7916601562501 73.4718359374999 1049.7596484375001 92.2796875C1098.26513671875 175.4487109375 1126.125 272.146875 1126.125 375.375C1126.125 686.3497265625 874.0372265625 938.4375 563.0625 938.4375zM996.1123046875 125.125L130.4037109375 123.795546875C86.0234375 199.90673828125 62.5625 286.8881640625 62.5625 375.375C62.5625 651.3538281250001 287.083671875 875.875 563.0625 875.875S1063.5625 651.3538281250001 1063.5625 375.375C1063.5625 286.8881640625 1040.1015625 199.90673828125 996.1123046875 125.125zM187.6875 422.296875C161.7631640625 422.296875 140.765625 401.2993359375 140.765625 375.375S161.7631640625 328.453125 187.6875 328.453125S234.609375 349.4506640625 234.609375 375.375S213.6118359375 422.296875 187.6875 422.296875zM714.0336328125001 749.02953125C698.02154296875 754.4646484375 679.9370703125 745.99916015625 674.2673437500001 729.69380859375L572.9356445312501 436.94041015625C569.6315625000001 437.1945703125 566.4643359375001 437.9375 563.0820507812501 437.9375C493.9700390625001 437.9375 437.9570507812501 381.9245117187501 437.9570507812501 312.8125S493.9700390625001 187.6875 563.0820507812501 187.6875S688.2070507812501 243.70048828125 688.2070507812501 312.8125C688.2070507812501 356.31298828125 665.9582617187501 394.5738671875 632.2527148437501 416.9986132812501L733.4084570312501 709.24369140625C739.0195312500001 725.54904296875 730.39763671875 743.37935546875 714.0336328125001 749.02953125zM563.0625 250.25C528.574921875 250.25 500.5 278.324921875 500.5 312.8125S528.574921875 375.375 563.0625 375.375S625.625 347.3000781250001 625.625 312.8125S597.550078125 250.25 563.0625 250.25z" />
    <glyph glyph-name="th-large"
      unicode="&#xE03F;"
      horiz-adv-x="1001" d="M0 844.59375V156.40625C0 103.6035000000001 41.07228125 62.5625 93.84375 62.5625H907.15625C957.98828125 62.5625 1001 103.6035000000001 1001 156.40625V844.59375C1001 895.42578125 957.98828125 938.4375 907.15625 938.4375H93.84375C41.041 938.4375 0 895.42578125 0 844.59375zM453.578125 844.59375V547.421875H93.84375V832.86328125C93.84375 838.7441562500001 97.75390625 844.59375 105.57421875 844.59375zM93.84375 453.578125H453.578125V156.40625H105.57421875C97.75390625 156.40625 93.84375 160.31640625 93.84375 168.13671875zM547.421875 156.40625V453.578125H907.15625V168.13671875C907.15625 160.31640625 901.275375 156.40625 895.42578125 156.40625zM907.15625 547.421875H547.421875V844.59375H895.42578125C901.275375 844.59375 907.15625 838.7128749999999 907.15625 832.86328125z" />
    <glyph glyph-name="th-list"
      unicode="&#xE040;"
      horiz-adv-x="1001" d="M291.957681640625 578.703125V422.296875C291.957681640625 396.382314453125 270.9503671875 375.375 245.035806640625 375.375H46.921875C21.007314453125 375.375 0 396.382314453125 0 422.296875V578.703125C0 604.617685546875 21.007314453125 625.625 46.921875 625.625H245.035806640625C270.9503671875 625.625 291.957681640625 604.617685546875 291.957681640625 578.703125zM0 265.890625V109.484375C0 83.569814453125 21.007314453125 62.5625 46.921875 62.5625H245.035806640625C270.9503671875 62.5625 291.957681640625 83.569814453125 291.957681640625 109.484375V265.890625C291.957681640625 291.805185546875 270.9503671875 312.8125 245.035806640625 312.8125H46.921875C21.007314453125 312.8125 0 291.805185546875 0 265.890625zM245.035806640625 938.4375H46.921875C21.007314453125 938.4375 0 917.430185546875 0 891.515625V735.109375C0 709.194814453125 21.007314453125 688.1875 46.921875 688.1875H245.035806640625C270.9503671875 688.1875 291.957681640625 709.194814453125 291.957681640625 735.109375V891.515625C291.957681640625 917.430185546875 270.9503671875 938.4375 245.035806640625 938.4375zM401.442056640625 62.5625H954.078125C979.992685546875 62.5625 1001 83.569814453125 1001 109.484375V265.890625C1001 291.805185546875 979.992685546875 312.8125 954.078125 312.8125H401.442056640625C375.52749609375 312.8125 354.520181640625 291.805185546875 354.520181640625 265.890625V109.484375C354.520181640625 83.569814453125 375.52749609375 62.5625 401.442056640625 62.5625zM354.520181640625 891.515625V735.109375C354.520181640625 709.194814453125 375.52749609375 688.1875 401.442056640625 688.1875H954.078125C979.992685546875 688.1875 1001 709.194814453125 1001 735.109375V891.515625C1001 917.430185546875 979.992685546875 938.4375 954.078125 938.4375H401.442056640625C375.52749609375 938.4375 354.520181640625 917.430185546875 354.520181640625 891.515625zM401.442056640625 375.375H954.078125C979.992685546875 375.375 1001 396.382314453125 1001 422.296875V578.703125C1001 604.617685546875 979.992685546875 625.625 954.078125 625.625H401.442056640625C375.52749609375 625.625 354.520181640625 604.617685546875 354.520181640625 578.703125V422.296875C354.520181640625 396.382314453125 375.52749609375 375.375 401.442056640625 375.375z" />
    </font>
</defs>
</svg>
